<svg version="1.1" xmlns="http://www.w3.org/2000/svg" viewBox="0 0 370.09394608375726 352.72376540755585" width="370.09394608375726" height="352.72376540755585">
  <!-- svg-source:excalidraw -->
  
  <defs>
    <style class="style-fonts">
      @font-face {
        font-family: "Virgil";
        src: url("https://excalidraw.com/Virgil.woff2");
      }
      @font-face {
        font-family: "Cascadia";
        src: url("https://excalidraw.com/Cascadia.woff2");
      }
    </style>
    
  </defs>
  <rect x="0" y="0" width="370.09394608375726" height="352.72376540755585" fill="#ffffff"/><g stroke-linecap="round"><g transform="translate(11.113196780654789 11.663488324708737) rotate(0 0 165.5)"><path d="M-0.02 0.05 C-0.02 55.25, 0.01 275.89, 0.01 331.06 M-0.2 -0.05 C-0.23 55.12, -0.11 275.69, -0.1 330.83" stroke="#1e1e1e" stroke-width="1" fill="none"/></g></g><mask/><g stroke-linecap="round"><g transform="translate(357.93140171604864 10.112834622543687) rotate(0 0 165.5)"><path d="M0 -0.11 C0.03 55.05, 0.1 275.96, 0.09 331.14 M-0.17 0.15 C-0.15 55.34, 0.02 275.8, 0.02 330.96" stroke="#1e1e1e" stroke-width="1" fill="none"/></g></g><mask/><g stroke-linecap="round"><g transform="translate(10.113196780654789 341.66348832470874) rotate(0 174.5 0)"><path d="M0.12 0.03 C58.3 -0.01, 290.84 -0.13, 348.97 -0.14" stroke="#1e1e1e" stroke-width="1.5" fill="none" stroke-dasharray="8 9"/></g></g><mask/><g stroke-linecap="round"><g transform="translate(14.113196780654789 159.66348832470874) rotate(0 172.06969107640782 -46.10593476579624)"><path d="M-1.12 0.76 C56.26 -14.53, 286.55 -75.94, 344.05 -91.34 M0.5 0.11 C57.72 -15.54, 285.98 -77.38, 343.05 -93.01" stroke="#1e1e1e" stroke-width="1" fill="none"/></g><g transform="translate(14.113196780654789 159.66348832470874) rotate(0 172.06969107640782 -46.10593476579624)"><path d="M318.55 -75.71 C326.71 -80.54, 333.85 -85.76, 343.05 -93.01 M318.55 -75.71 C327.41 -81.91, 335.53 -86.82, 343.05 -93.01" stroke="#1e1e1e" stroke-width="1" fill="none"/></g><g transform="translate(14.113196780654789 159.66348832470874) rotate(0 172.06969107640782 -46.10593476579624)"><path d="M313.16 -95.51 C322.91 -94.67, 331.58 -94.27, 343.05 -93.01 M313.16 -95.51 C323.85 -94.86, 333.84 -92.9, 343.05 -93.01" stroke="#1e1e1e" stroke-width="1" fill="none"/></g></g><mask/><g stroke-linecap="round"><g transform="translate(10.113196780654789 69.66348832470874) rotate(0 175 0)"><path d="M0.04 0.05 C58.36 0.05, 291.63 -0.02, 349.98 -0.01 M-0.11 -0.06 C58.18 -0.03, 291.48 0.18, 349.86 0.17" stroke="#1e1e1e" stroke-width="1" fill="none"/></g><g transform="translate(10.113196780654789 69.66348832470874) rotate(0 175 0)"><path d="M321.66 10.42 C331.54 6.81, 341.22 3.57, 349.86 0.17 M321.66 10.42 C332.44 6.59, 343.27 2.45, 349.86 0.17" stroke="#1e1e1e" stroke-width="1" fill="none"/></g><g transform="translate(10.113196780654789 69.66348832470874) rotate(0 175 0)"><path d="M321.67 -10.1 C331.54 -6.59, 341.21 -2.71, 349.86 0.17 M321.67 -10.1 C332.45 -6.02, 343.27 -2.24, 349.86 0.17" stroke="#1e1e1e" stroke-width="1" fill="none"/></g></g><mask/></svg>