<svg version="1.1" xmlns="http://www.w3.org/2000/svg" viewBox="0 0 403.7046650089242 389.81776523724545" width="403.7046650089242" height="389.81776523724545">
  <!-- svg-source:excalidraw -->
  
  <defs>
    <style class="style-fonts">
      @font-face {
        font-family: "Virgil";
        src: url("https://excalidraw.com/Virgil.woff2");
      }
      @font-face {
        font-family: "Cascadia";
        src: url("https://excalidraw.com/Cascadia.woff2");
      }
    </style>
    
  </defs>
  <rect x="0" y="0" width="403.7046650089242" height="389.81776523724545" fill="#ffffff"/><g stroke-linecap="round"><g transform="translate(10.005641867842286 11.194031078783524) rotate(0 187.5 0)"><path d="M0.11 0.06 C62.59 0.07, 312.45 0.12, 374.95 0.1 M-0.01 -0.04 C62.44 -0.07, 312.29 -0.13, 374.81 -0.11" stroke="#1e1e1e" stroke-width="2" fill="none"/></g></g><mask/><g stroke-linecap="round"><g transform="translate(10.4579852654891 107.14258705258064) rotate(0 187.5 0)"><path d="M-0.05 0.1 C62.46 0.08, 312.63 -0.01, 375.14 -0.05 M0.2 0.02 C62.68 0.02, 312.64 0.12, 375.09 0.12" stroke="#1e1e1e" stroke-width="2" fill="none"/></g></g><mask/><g stroke-linecap="round"><g transform="translate(11.005641867842286 10.194031078783524) rotate(0 0 49)"><path d="M0.14 -0.05 C0.15 16.25, 0.01 81.56, 0 97.89 M0.03 -0.19 C0.02 16.11, -0.11 81.64, -0.11 98.01" stroke="#1e1e1e" stroke-width="2" fill="none"/></g></g><mask/><g stroke-linecap="round"><g transform="translate(387.0056418678423 10.194031078783524) rotate(0 0 49)"><path d="M0 -0.11 C-0.01 16.21, 0.09 81.59, 0.07 97.92 M-0.18 0.15 C-0.21 16.49, -0.07 81.76, -0.01 98.07" stroke="#1e1e1e" stroke-width="2" fill="none"/></g></g><mask/><g stroke-linecap="round"><g transform="translate(11.005641867842286 63.194031078783524) rotate(0 188.5 -25.5)"><path d="M0.59 -0.65 C31.96 -9.16, 125.66 -51.24, 188.23 -51.96 C250.81 -52.68, 344.7 -13.03, 376.03 -4.95 M-0.57 1.62 C31.19 -6.68, 127.38 -49.97, 190.54 -50.93 C253.71 -51.88, 347.5 -11.66, 378.41 -4.13" stroke="#1e1e1e" stroke-width="2" fill="none"/></g></g><mask/><g stroke-linecap="round"><g transform="translate(385.0056418678423 59.194031078783524) rotate(0 -186 24)"><path d="M-0.32 -0.4 C-31.09 7.58, -122.4 46.34, -184.4 47.61 C-246.4 48.88, -341.08 14.04, -372.33 7.22" stroke="#1e1e1e" stroke-width="2.5" fill="none" stroke-dasharray="8 10"/></g></g><mask/><g stroke-linecap="round"><g transform="translate(13.851866835034684 152.66606671919843) rotate(0 187.5 0)"><path d="M0.01 -0.01 C62.48 0.03, 312.47 0.12, 374.95 0.14 M-0.16 -0.15 C62.28 -0.13, 312.25 -0.05, 374.81 -0.04" stroke="#1e1e1e" stroke-width="2" fill="none"/></g></g><mask/><g stroke-linecap="round"><g transform="translate(14.304210232681498 248.61462269299554) rotate(0 187.5 0)"><path d="M-0.05 0.14 C62.43 0.17, 312.4 0.12, 374.89 0.12 M0.19 0.09 C62.72 0.08, 312.66 -0.04, 375.16 -0.07" stroke="#1e1e1e" stroke-width="2" fill="none"/></g></g><mask/><g stroke-linecap="round"><g transform="translate(390.8518668350347 151.66606671919843) rotate(0 0 49)"><path d="M-0.09 0.13 C-0.08 16.46, -0.05 81.84, -0.03 98.14 M0.13 0.07 C0.13 16.36, -0.14 81.62, -0.15 97.96" stroke="#1e1e1e" stroke-width="2" fill="none"/></g></g><mask/><g stroke-linecap="round"><g transform="translate(13.870052234102047 152.62989286976872) rotate(0 188.99090730046632 24.01808692471485)"><path d="M-0.09 0.48 C35.76 2.85, 151.77 6.74, 214.79 14.63 C277.81 22.53, 350.76 42.32, 378.01 47.85 M-0.74 0.3 C35.1 2.95, 151.46 7.19, 214.54 15.19 C277.61 23.19, 350.37 42.8, 377.72 48.29" stroke="#1e1e1e" stroke-width="2" fill="none"/></g></g><mask/><g stroke-linecap="round"><g transform="translate(388.8518668350347 200.66606671919843) rotate(0 -186.98181460093264 24.11810661958536)"><path d="M0.27 -0.15 C-24.98 5.77, -89.25 28, -151.57 36.03 C-213.88 44.05, -336.6 45.99, -373.61 48.01" stroke="#1e1e1e" stroke-width="2.5" fill="none" stroke-dasharray="8 10"/></g></g><mask/><g stroke-linecap="round"><g transform="translate(13.916538798768158 283.0784461270679) rotate(0 187.5 0)"><path d="M-0.02 -0.04 C62.52 -0.04, 312.55 0.05, 375.07 0.04 M-0.2 -0.19 C62.33 -0.23, 312.44 -0.23, 374.99 -0.19" stroke="#1e1e1e" stroke-width="2" fill="none"/></g></g><mask/><g stroke-linecap="round"><g transform="translate(14.368882196414972 379.02700210086493) rotate(0 187.5 0)"><path d="M0.07 0.04 C62.59 0.04, 312.59 -0.07, 375.1 -0.08 M-0.08 -0.06 C62.43 -0.05, 312.51 0.04, 375.03 0.07" stroke="#1e1e1e" stroke-width="2" fill="none"/></g></g><mask/><g stroke-linecap="round"><g transform="translate(13.934724197835521 283.0422722776382) rotate(0 189.4818146009326 45.61800814523282)"><path d="M0.82 -0.22 C19.27 2.19, 79.94 6.27, 111.51 13.85 C143.08 21.44, 164.98 34.35, 190.26 45.29 C215.53 56.23, 231.56 71.73, 263.15 79.5 C294.74 87.27, 360.4 89.86, 379.77 91.9 M-0.21 -1.39 C18.06 1.3, 78.63 7.51, 110.79 15.43 C142.96 23.35, 167.27 35.28, 192.78 46.13 C218.29 56.99, 232.87 72.82, 263.86 80.58 C294.85 88.33, 359.81 90.91, 378.72 92.64" stroke="#1e1e1e" stroke-width="2" fill="none"/></g></g><mask/><g stroke-linecap="round"><g transform="translate(387.9347241978355 288.8604182869645) rotate(0 -186.4909073004663 45.227120539637056)"><path d="M0.43 0.08 C-17.95 2.11, -79.06 4.64, -109.49 11.96 C-139.91 19.28, -158.67 33.12, -182.14 44.02 C-205.62 54.91, -218.6 69.53, -250.34 77.35 C-282.07 85.18, -352.1 88.75, -372.57 90.96" stroke="#1e1e1e" stroke-width="2.5" fill="none" stroke-dasharray="8 10"/></g></g><mask/></svg>