<svg version="1.1" xmlns="http://www.w3.org/2000/svg" viewBox="0 0 284 297" width="284" height="297">
  <!-- svg-source:excalidraw -->
  
  <defs>
    <style class="style-fonts">
      @font-face {
        font-family: "Virgil";
        src: url("https://excalidraw.com/Virgil.woff2");
      }
      @font-face {
        font-family: "Cascadia";
        src: url("https://excalidraw.com/Cascadia.woff2");
      }
    </style>
    
  </defs>
  <rect x="0" y="0" width="284" height="297" fill="#ffffff"/><g stroke-linecap="round"><g transform="translate(143 10) rotate(0 -66.5 127.5)"><path d="M0 0 C-50.49 90.31, -98.85 182.55, -133 255 M0 0 C-34.64 65.63, -68.96 130.65, -133 255 M-133 255 C-90 254.45, -52.02 254.24, -3 255 M-133 255 C-95.51 255.89, -59.21 256.15, -3 255 M-3 255 C-2.72 202.31, -3.63 148.2, 0 0 M-3 255 C0.43 176.21, 0.84 95.2, 0 0" stroke="#1e1e1e" stroke-width="2" fill="none"/></g></g><mask/><g transform="translate(31 231) rotate(0 4.5 18.5)" stroke="none"><path fill="#1e1e1e" d="M 1.11,-2.23 Q 1.11,-2.23 2.35,-1.59 3.59,-0.96 4.55,0.24 5.52,1.44 6.44,3.63 7.36,5.82 7.66,7.41 7.96,8.99 8.55,10.31 9.14,11.64 9.55,12.72 9.96,13.80 10.18,15.00 10.40,16.20 10.66,18.92 10.91,21.64 11.09,22.83 11.26,24.01 11.36,25.15 11.46,26.29 11.50,27.65 11.53,29.02 11.22,30.70 10.91,32.38 10.28,35.52 9.65,38.66 9.41,39.02 9.17,39.39 8.83,39.65 8.48,39.92 8.07,40.07 7.66,40.21 7.23,40.22 6.79,40.22 6.38,40.09 5.96,39.96 5.61,39.70 5.26,39.44 5.01,39.08 4.76,38.73 4.64,38.31 4.51,37.89 4.53,37.45 4.55,37.02 4.71,36.61 4.86,36.20 5.14,35.87 5.42,35.53 5.79,35.30 6.16,35.07 6.58,34.97 7.01,34.87 7.44,34.91 7.87,34.95 8.27,35.13 8.67,35.31 8.99,35.60 9.31,35.90 9.52,36.28 9.73,36.66 9.81,37.09 9.88,37.52 9.82,37.95 9.75,38.38 9.56,38.77 9.36,39.16 9.04,39.46 8.73,39.77 8.34,39.96 7.95,40.15 7.51,40.20 7.08,40.25 6.65,40.16 6.23,40.08 5.85,39.86 5.47,39.64 5.19,39.31 4.90,38.98 4.73,38.58 4.57,38.18 4.54,37.74 4.51,37.31 4.62,36.88 4.73,36.46 4.73,36.46 4.73,36.46 5.32,33.93 5.90,31.41 6.15,30.25 6.39,29.09 6.36,26.83 6.34,24.58 6.25,23.48 6.16,22.37 5.68,19.64 5.19,16.90 4.93,15.33 4.67,13.75 3.79,11.96 2.92,10.18 2.50,7.88 2.08,5.58 1.54,4.42 1.00,3.26 -0.05,2.74 -1.11,2.23 -1.36,2.06 -1.61,1.90 -1.82,1.68 -2.02,1.45 -2.17,1.19 -2.31,0.93 -2.39,0.64 -2.47,0.34 -2.47,0.04 -2.48,-0.25 -2.41,-0.54 -2.35,-0.84 -2.21,-1.10 -2.08,-1.37 -1.88,-1.60 -1.69,-1.83 -1.44,-2.01 -1.20,-2.18 -0.92,-2.30 -0.64,-2.41 -0.34,-2.45 -0.04,-2.49 0.25,-2.46 0.55,-2.43 0.83,-2.33 1.11,-2.23 1.11,-2.23 L 1.11,-2.23 Z"/></g><g transform="translate(62 251) rotate(0 1 -13)" stroke="none"><path fill="#1e1e1e" d="M -0.91,2.28 Q -0.91,2.28 -2.37,1.67 -3.82,1.06 -5.58,-0.65 -7.34,-2.37 -8.21,-3.80 -9.08,-5.22 -9.48,-6.88 -9.88,-8.54 -10.17,-10.19 -10.46,-11.84 -10.51,-13.05 -10.56,-14.26 -10.57,-15.62 -10.58,-16.99 -10.54,-18.07 -10.50,-19.16 -9.70,-20.50 -8.91,-21.84 -7.04,-23.49 -5.18,-25.13 -3.76,-26.23 -2.34,-27.33 -1.34,-27.93 -0.34,-28.53 1.80,-28.95 3.96,-29.38 6.11,-27.96 8.25,-26.55 9.22,-25.18 10.18,-23.82 10.73,-21.28 11.28,-18.75 11.44,-16.21 11.59,-13.68 11.67,-11.76 11.75,-9.84 11.55,-8.25 11.35,-6.66 10.98,-5.33 10.61,-4.01 10.13,-3.00 9.65,-1.99 8.40,-0.27 7.16,1.45 5.92,1.88 4.68,2.30 2.10,2.23 -0.46,2.16 -0.85,2.27 -1.24,2.37 -1.53,2.34 -1.82,2.32 -2.09,2.22 -2.36,2.13 -2.60,1.97 -2.85,1.81 -3.04,1.60 -3.24,1.39 -3.38,1.14 -3.53,0.89 -3.60,0.61 -3.68,0.34 -3.69,0.05 -3.70,-0.23 -3.64,-0.51 -3.58,-0.80 -3.45,-1.06 -3.32,-1.31 -3.14,-1.54 -2.95,-1.76 -2.72,-1.93 -2.49,-2.10 -2.22,-2.21 -1.95,-2.32 -1.67,-2.36 -1.38,-2.41 -0.95,-2.34 -0.52,-2.27 -0.18,-2.09 0.15,-1.90 0.42,-1.61 0.68,-1.33 0.84,-0.98 0.99,-0.62 1.03,-0.24 1.07,0.14 0.98,0.52 0.89,0.89 0.68,1.22 0.48,1.55 0.18,1.80 -0.11,2.05 -0.47,2.18 -0.83,2.32 -1.22,2.34 -1.61,2.35 -1.98,2.24 -2.35,2.13 -2.67,1.91 -2.98,1.69 -3.21,1.38 -3.44,1.07 -3.56,0.70 -3.68,0.33 -3.68,-0.05 -3.67,-0.43 -3.54,-0.80 -3.41,-1.17 -3.17,-1.47 -2.93,-1.78 -2.61,-1.99 -2.29,-2.20 -1.91,-2.30 -1.54,-2.40 -1.15,-2.37 -0.76,-2.34 -0.41,-2.20 -0.05,-2.05 0.23,-1.79 0.52,-1.54 0.72,-1.20 0.91,-0.87 0.99,-0.49 1.07,-0.11 1.02,0.27 0.97,0.65 0.81,1.00 0.64,1.35 0.37,1.63 0.10,1.90 -0.24,2.08 -0.58,2.26 -0.96,2.31 -1.35,2.37 -1.29,2.37 -1.24,2.37 -1.53,2.34 -1.82,2.32 -2.09,2.22 -2.36,2.13 -2.60,1.97 -2.85,1.82 -3.04,1.60 -3.24,1.39 -3.38,1.14 -3.53,0.89 -3.60,0.61 -3.68,0.34 -3.69,0.05 -3.70,-0.23 -3.64,-0.51 -3.58,-0.80 -3.45,-1.06 -3.32,-1.31 -3.14,-1.54 -2.95,-1.76 -2.72,-1.93 -2.49,-2.10 -2.22,-2.21 -1.95,-2.32 -1.67,-2.36 -1.38,-2.41 -0.99,-2.39 -0.59,-2.37 2.02,-2.45 4.64,-2.53 5.59,-3.96 6.54,-5.40 6.95,-6.39 7.36,-7.38 7.65,-8.52 7.94,-9.66 7.82,-11.47 7.70,-13.29 7.37,-15.48 7.05,-17.66 6.16,-20.20 5.27,-22.74 4.00,-23.51 2.74,-24.27 1.63,-23.96 0.53,-23.65 -0.62,-22.72 -1.78,-21.79 -3.58,-19.40 -5.39,-17.02 -5.38,-15.69 -5.37,-14.35 -5.38,-13.28 -5.39,-12.21 -5.36,-10.82 -5.32,-9.43 -4.81,-7.46 -4.29,-5.50 -3.10,-4.43 -1.92,-3.36 -0.50,-2.82 0.91,-2.28 1.17,-2.13 1.43,-1.99 1.64,-1.79 1.86,-1.59 2.03,-1.34 2.19,-1.10 2.29,-0.82 2.39,-0.54 2.42,-0.25 2.45,0.04 2.41,0.33 2.37,0.63 2.26,0.90 2.15,1.18 1.98,1.42 1.80,1.66 1.58,1.85 1.35,2.04 1.09,2.17 0.82,2.31 0.54,2.37 0.25,2.44 -0.04,2.43 -0.34,2.43 -0.62,2.35 -0.91,2.28 -0.91,2.28 L -0.91,2.28 Z"/></g><g transform="translate(51 240) rotate(0 10 -3.5)" stroke="none"><path fill="#1e1e1e" d="M -0.78,-2.34 Q -0.78,-2.34 0.95,-2.84 2.69,-3.35 3.76,-4.05 4.83,-4.76 5.83,-5.25 6.83,-5.74 8.02,-6.01 9.22,-6.28 10.33,-6.61 11.44,-6.93 12.62,-7.54 13.79,-8.15 16.44,-8.79 19.08,-9.44 19.50,-9.45 19.91,-9.45 20.30,-9.32 20.70,-9.18 21.03,-8.93 21.36,-8.68 21.59,-8.34 21.83,-8.00 21.94,-7.60 22.05,-7.20 22.03,-6.78 22.01,-6.37 21.86,-5.98 21.70,-5.60 21.44,-5.28 21.17,-4.96 20.81,-4.75 20.46,-4.53 20.05,-4.44 19.65,-4.35 19.23,-4.39 18.82,-4.44 18.44,-4.61 18.07,-4.78 17.77,-5.07 17.46,-5.35 17.27,-5.72 17.07,-6.09 17.00,-6.50 16.94,-6.91 17.00,-7.32 17.07,-7.73 17.26,-8.09 17.46,-8.46 17.76,-8.75 18.06,-9.03 18.43,-9.21 18.81,-9.38 19.22,-9.43 19.63,-9.48 20.04,-9.39 20.45,-9.30 20.80,-9.09 21.16,-8.87 21.43,-8.56 21.70,-8.24 21.85,-7.86 22.01,-7.47 22.03,-7.06 22.05,-6.64 21.94,-6.24 21.83,-5.84 21.60,-5.50 21.37,-5.15 21.04,-4.90 20.71,-4.65 20.32,-4.51 19.92,-4.38 19.92,-4.38 19.92,-4.38 17.99,-4.04 16.06,-3.70 14.45,-2.86 12.83,-2.02 11.42,-1.65 10.01,-1.27 8.65,-1.04 7.29,-0.81 5.74,0.11 4.20,1.05 2.49,1.69 0.78,2.34 0.48,2.40 0.19,2.46 -0.09,2.44 -0.39,2.43 -0.68,2.35 -0.96,2.27 -1.22,2.12 -1.48,1.97 -1.69,1.76 -1.91,1.56 -2.07,1.30 -2.23,1.05 -2.32,0.77 -2.42,0.49 -2.44,0.19 -2.46,-0.10 -2.42,-0.39 -2.37,-0.68 -2.25,-0.96 -2.13,-1.23 -1.95,-1.47 -1.78,-1.71 -1.54,-1.90 -1.31,-2.08 -1.04,-2.21 -0.78,-2.34 -0.78,-2.34 L -0.78,-2.34 Z"/></g><g transform="translate(64 102) rotate(0 -10.5 -3)" stroke="none"><path fill="#1e1e1e" d="M 0.19,2.12 Q 0.19,2.12 -2.97,2.30 -6.14,2.48 -8.16,3.05 -10.19,3.63 -11.82,4.64 -13.45,5.66 -14.69,6.71 -15.93,7.76 -17.26,9.46 -18.59,11.17 -19.05,12.20 -19.51,13.24 -19.60,14.32 -19.69,15.41 -18.16,14.57 -16.62,13.73 -15.03,11.60 -13.43,9.47 -12.09,6.88 -10.74,4.29 -9.54,1.47 -8.35,-1.34 -7.93,-2.82 -7.50,-4.31 -6.03,-7.33 -4.57,-10.36 -3.34,-12.49 -2.12,-14.63 -1.72,-16.23 -1.32,-17.84 -1.24,-19.75 -1.16,-21.67 -1.54,-22.96 -1.91,-24.24 -1.86,-24.52 -1.82,-24.79 -1.70,-25.05 -1.59,-25.30 -1.42,-25.52 -1.25,-25.75 -1.03,-25.92 -0.81,-26.10 -0.56,-26.21 -0.30,-26.33 -0.03,-26.38 0.24,-26.43 0.52,-26.42 0.80,-26.41 1.06,-26.32 1.33,-26.24 1.57,-26.10 1.81,-25.96 2.01,-25.76 2.21,-25.57 2.36,-25.33 2.51,-25.09 2.59,-24.82 2.68,-24.56 2.70,-24.28 2.72,-24.00 1.46,-22.78 0.21,-21.56 -0.62,-19.88 -1.47,-18.20 -2.58,-15.70 -3.69,-13.20 -4.07,-11.84 -4.45,-10.48 -4.93,-8.77 -5.41,-7.07 -5.56,-5.59 -5.72,-4.12 -5.82,-2.36 -5.92,-0.61 -5.93,1.00 -5.95,2.61 -5.58,4.62 -5.22,6.62 -4.70,8.19 -4.18,9.77 -3.46,11.04 -2.75,12.31 -1.08,13.91 0.59,15.50 0.85,15.89 1.11,16.27 1.24,16.72 1.37,17.16 1.35,17.63 1.33,18.09 1.16,18.53 0.99,18.96 0.69,19.32 0.39,19.67 0.00,19.91 -0.39,20.16 -0.84,20.26 -1.30,20.36 -1.76,20.32 -2.22,20.27 -2.65,20.08 -3.07,19.89 -3.41,19.57 -3.75,19.25 -3.97,18.84 -4.19,18.43 -4.27,17.98 -4.35,17.52 -4.28,17.06 -4.20,16.60 -3.99,16.19 -3.77,15.77 -3.44,15.45 -3.10,15.13 -2.68,14.93 -2.26,14.73 -1.80,14.68 -1.34,14.63 -0.89,14.72 -0.43,14.82 -0.03,15.06 0.36,15.29 0.66,15.64 0.97,16.00 1.14,16.43 1.32,16.86 1.35,17.32 1.37,17.79 1.25,18.23 1.13,18.68 0.87,19.07 0.62,19.46 0.25,19.74 -0.11,20.03 -0.55,20.18 -0.99,20.33 -1.45,20.33 -1.92,20.34 -2.36,20.19 -2.80,20.04 -3.17,19.77 -3.55,19.49 -3.55,19.49 -3.55,19.49 -4.66,18.28 -5.78,17.07 -6.78,15.52 -7.78,13.98 -8.30,12.73 -8.81,11.48 -9.20,9.53 -9.60,7.58 -9.77,5.05 -9.93,2.52 -9.88,0.86 -9.82,-0.80 -9.74,-2.71 -9.67,-4.62 -9.41,-6.36 -9.16,-8.09 -8.68,-9.89 -8.20,-11.68 -7.67,-13.14 -7.15,-14.59 -6.12,-17.37 -5.10,-20.15 -3.51,-22.19 -1.91,-24.24 -1.86,-24.51 -1.82,-24.79 -1.70,-25.05 -1.59,-25.30 -1.42,-25.52 -1.25,-25.75 -1.03,-25.92 -0.81,-26.10 -0.56,-26.21 -0.30,-26.33 -0.03,-26.38 0.24,-26.43 0.52,-26.42 0.80,-26.41 1.06,-26.32 1.33,-26.24 1.57,-26.10 1.81,-25.96 2.01,-25.76 2.21,-25.57 2.36,-25.33 2.51,-25.09 2.59,-24.82 2.68,-24.56 2.70,-24.28 2.72,-24.00 2.81,-22.66 2.90,-21.32 2.71,-20.21 2.52,-19.10 2.20,-18.02 1.88,-16.95 1.30,-15.02 0.71,-13.10 -0.35,-11.01 -1.43,-8.91 -2.68,-6.04 -3.92,-3.17 -4.47,-1.60 -5.02,-0.03 -6.11,2.97 -7.20,5.98 -8.52,8.99 -9.85,11.99 -11.83,14.92 -13.81,17.84 -14.85,18.44 -15.88,19.04 -17.59,19.71 -19.31,20.37 -20.68,20.09 -22.05,19.80 -22.79,17.23 -23.53,14.66 -23.11,13.09 -22.69,11.53 -21.92,10.38 -21.16,9.23 -19.63,7.15 -18.10,5.08 -16.66,3.99 -15.22,2.91 -13.25,1.60 -11.28,0.30 -8.89,-0.51 -6.50,-1.33 -3.35,-1.72 -0.19,-2.12 0.06,-2.11 0.32,-2.11 0.56,-2.04 0.81,-1.97 1.04,-1.84 1.26,-1.71 1.45,-1.54 1.63,-1.36 1.77,-1.15 1.91,-0.93 2.00,-0.69 2.08,-0.44 2.11,-0.19 2.13,0.06 2.09,0.31 2.05,0.57 1.95,0.81 1.85,1.04 1.70,1.25 1.55,1.46 1.35,1.62 1.15,1.79 0.92,1.90 0.69,2.01 0.44,2.07 0.19,2.12 0.19,2.12 L 0.19,2.12 Z"/></g><g transform="translate(159 264) rotate(0 32 4.5)" stroke="none"><path fill="#1e1e1e" d="M 0.69,-1.39 Q 0.69,-1.39 2.97,-0.21 5.25,0.95 7.48,1.41 9.71,1.86 11.90,2.37 14.09,2.89 16.99,3.39 19.88,3.90 22.51,4.11 25.13,4.32 28.10,5.01 31.06,5.70 35.38,6.26 39.69,6.82 45.81,7.06 51.92,7.31 56.89,7.34 61.85,7.38 62.10,7.43 62.34,7.48 62.56,7.60 62.78,7.73 62.94,7.91 63.11,8.10 63.21,8.33 63.31,8.56 63.33,8.81 63.35,9.06 63.29,9.30 63.22,9.55 63.09,9.76 62.95,9.97 62.76,10.12 62.56,10.28 62.33,10.37 62.09,10.45 61.84,10.46 61.59,10.46 61.35,10.39 61.11,10.31 60.91,10.17 60.71,10.02 60.56,9.82 60.42,9.61 60.34,9.37 60.27,9.14 60.28,8.88 60.29,8.63 60.37,8.40 60.46,8.17 60.62,7.97 60.77,7.78 60.99,7.64 61.20,7.51 61.44,7.45 61.68,7.39 61.93,7.41 62.18,7.43 62.41,7.53 62.64,7.63 62.83,7.80 63.01,7.96 63.14,8.18 63.26,8.40 63.30,8.65 63.35,8.89 63.32,9.14 63.28,9.39 63.17,9.61 63.06,9.84 62.88,10.01 62.70,10.19 62.48,10.30 62.25,10.41 62.01,10.44 61.76,10.48 61.76,10.48 61.76,10.48 56.79,10.22 51.82,9.97 45.58,9.72 39.35,9.48 34.90,8.90 30.45,8.33 27.68,7.68 24.92,7.04 22.17,6.83 19.42,6.62 16.44,6.13 13.47,5.64 11.30,5.16 9.14,4.69 6.54,4.16 3.94,3.64 1.62,2.51 -0.69,1.39 -0.85,1.29 -1.01,1.18 -1.14,1.05 -1.26,0.91 -1.35,0.74 -1.44,0.58 -1.49,0.40 -1.54,0.21 -1.55,0.03 -1.55,-0.15 -1.51,-0.34 -1.47,-0.52 -1.38,-0.69 -1.30,-0.86 -1.18,-1.00 -1.05,-1.14 -0.90,-1.25 -0.75,-1.36 -0.57,-1.43 -0.40,-1.50 -0.21,-1.53 -0.03,-1.56 0.15,-1.54 0.34,-1.52 0.52,-1.46 0.69,-1.39 0.69,-1.39 L 0.69,-1.39 Z"/></g><g transform="translate(173 255) rotate(0 -8.5 16)" stroke="none"><path fill="#1e1e1e" d="M 1.01,1.82 Q 1.01,1.82 -1.62,3.17 -4.26,4.52 -6.49,5.89 -8.72,7.26 -10.78,8.93 -12.84,10.61 -13.96,11.68 -15.08,12.76 -13.58,13.96 -12.08,15.16 -10.58,16.39 -9.08,17.63 -7.88,18.35 -6.68,19.07 -5.62,20.13 -4.55,21.18 -3.39,22.41 -2.23,23.65 -1.39,24.42 -0.55,25.20 1.14,27.76 2.84,30.32 3.00,30.69 3.16,31.05 3.20,31.45 3.24,31.84 3.15,32.23 3.05,32.62 2.84,32.95 2.63,33.29 2.33,33.54 2.02,33.80 1.65,33.94 1.28,34.08 0.88,34.10 0.48,34.11 0.10,34.00 -0.27,33.89 -0.60,33.66 -0.92,33.43 -1.16,33.11 -1.39,32.79 -1.52,32.42 -1.64,32.04 -1.63,31.64 -1.63,31.24 -1.49,30.87 -1.36,30.49 -1.12,30.18 -0.87,29.87 -0.54,29.65 -0.21,29.43 0.17,29.33 0.55,29.23 0.95,29.25 1.35,29.28 1.71,29.43 2.08,29.59 2.38,29.85 2.68,30.11 2.88,30.45 3.08,30.80 3.16,31.19 3.24,31.58 3.19,31.97 3.14,32.37 2.97,32.72 2.80,33.08 2.52,33.37 2.24,33.65 1.89,33.83 1.54,34.01 1.14,34.07 0.75,34.13 0.36,34.06 -0.02,33.99 -0.37,33.80 -0.72,33.61 -0.99,33.32 -1.26,33.02 -1.26,33.02 -1.26,33.02 -2.53,30.70 -3.80,28.37 -4.57,27.51 -5.33,26.64 -7.15,24.60 -8.97,22.56 -10.25,21.69 -11.53,20.82 -13.16,19.66 -14.78,18.51 -15.87,17.52 -16.96,16.53 -17.88,14.99 -18.79,13.46 -18.10,11.80 -17.41,10.15 -16.17,9.14 -14.92,8.13 -12.77,6.25 -10.62,4.37 -8.35,2.80 -6.08,1.22 -3.55,-0.29 -1.01,-1.82 -0.78,-1.92 -0.54,-2.01 -0.29,-2.05 -0.04,-2.08 0.20,-2.06 0.45,-2.03 0.68,-1.95 0.92,-1.87 1.13,-1.73 1.34,-1.59 1.51,-1.41 1.69,-1.22 1.81,-1.00 1.93,-0.78 2.00,-0.54 2.06,-0.30 2.07,-0.04 2.07,0.20 2.02,0.44 1.97,0.69 1.85,0.91 1.74,1.14 1.58,1.33 1.42,1.53 1.21,1.67 1.01,1.82 1.01,1.82 L 1.01,1.82 Z"/></g><g transform="translate(253 246) rotate(0 -3.5 16.5)" stroke="none"><path fill="#1e1e1e" d="M 1.98,0.39 Q 1.98,0.39 0.74,6.12 -0.49,11.86 -1.36,14.64 -2.22,17.42 -2.89,19.45 -3.55,21.47 -4.12,24.25 -4.69,27.03 -4.98,29.81 -5.28,32.59 -5.35,32.85 -5.42,33.11 -5.57,33.33 -5.72,33.55 -5.94,33.72 -6.15,33.88 -6.41,33.97 -6.66,34.05 -6.93,34.05 -7.20,34.05 -7.45,33.97 -7.71,33.88 -7.92,33.72 -8.14,33.56 -8.29,33.34 -8.44,33.11 -8.51,32.85 -8.59,32.59 -8.57,32.33 -8.56,32.06 -8.46,31.81 -8.36,31.56 -8.19,31.35 -8.01,31.15 -7.78,31.01 -7.55,30.87 -7.29,30.81 -7.03,30.75 -6.76,30.78 -6.49,30.81 -6.25,30.92 -6.00,31.03 -5.81,31.22 -5.61,31.40 -5.48,31.64 -5.36,31.88 -5.31,32.14 -5.27,32.41 -5.31,32.67 -5.35,32.94 -5.48,33.18 -5.61,33.42 -5.80,33.60 -6.00,33.79 -6.24,33.90 -6.48,34.01 -6.75,34.04 -7.02,34.07 -7.28,34.02 -7.55,33.96 -7.78,33.82 -8.01,33.68 -8.18,33.48 -8.36,33.27 -8.46,33.02 -8.56,32.77 -8.57,32.50 -8.59,32.23 -8.59,32.23 -8.59,32.23 -8.13,29.35 -7.67,26.46 -7.14,23.50 -6.61,20.54 -6.04,18.52 -5.48,16.49 -4.79,13.81 -4.10,11.13 -3.04,5.37 -1.98,-0.39 -1.91,-0.62 -1.83,-0.86 -1.70,-1.06 -1.57,-1.27 -1.39,-1.44 -1.22,-1.61 -1.01,-1.73 -0.80,-1.86 -0.56,-1.93 -0.33,-1.99 -0.08,-2.00 0.15,-2.02 0.39,-1.97 0.63,-1.92 0.85,-1.82 1.07,-1.71 1.26,-1.56 1.45,-1.40 1.60,-1.21 1.75,-1.02 1.84,-0.79 1.94,-0.57 1.98,-0.33 2.02,-0.08 2.00,0.15 1.98,0.39 1.98,0.39 L 1.98,0.39 Z"/></g><g transform="translate(249 253) rotate(0 10 -2.5)" stroke="none"><path fill="#1e1e1e" d="M -0.43,-1.94 Q -0.43,-1.94 2.17,-2.42 4.78,-2.91 6.71,-3.39 8.64,-3.87 13.10,-5.09 17.56,-6.31 17.86,-6.34 18.17,-6.37 18.46,-6.29 18.76,-6.22 19.01,-6.06 19.27,-5.90 19.46,-5.66 19.66,-5.43 19.76,-5.14 19.87,-4.86 19.88,-4.55 19.89,-4.25 19.80,-3.96 19.71,-3.67 19.54,-3.42 19.36,-3.17 19.12,-2.99 18.87,-2.81 18.58,-2.72 18.29,-2.63 17.99,-2.64 17.68,-2.64 17.40,-2.75 17.11,-2.85 16.87,-3.04 16.64,-3.23 16.47,-3.48 16.30,-3.74 16.23,-4.03 16.15,-4.33 16.18,-4.63 16.20,-4.93 16.32,-5.21 16.44,-5.49 16.64,-5.72 16.84,-5.95 17.10,-6.10 17.37,-6.25 17.67,-6.31 17.96,-6.37 18.26,-6.33 18.57,-6.29 18.84,-6.16 19.11,-6.02 19.33,-5.81 19.55,-5.60 19.68,-5.33 19.82,-5.05 19.86,-4.75 19.90,-4.45 19.85,-4.15 19.79,-3.85 19.65,-3.59 19.50,-3.32 19.27,-3.12 19.05,-2.91 18.77,-2.79 18.49,-2.67 18.49,-2.67 18.49,-2.67 14.02,-1.61 9.54,-0.55 7.55,0.03 5.56,0.61 2.99,1.27 0.43,1.94 0.19,1.96 -0.04,1.98 -0.28,1.95 -0.51,1.91 -0.74,1.82 -0.96,1.73 -1.15,1.59 -1.35,1.45 -1.50,1.27 -1.66,1.09 -1.76,0.87 -1.87,0.66 -1.92,0.42 -1.97,0.19 -1.97,-0.04 -1.96,-0.28 -1.90,-0.51 -1.84,-0.74 -1.72,-0.95 -1.60,-1.16 -1.44,-1.34 -1.28,-1.51 -1.08,-1.64 -0.88,-1.78 -0.65,-1.86 -0.43,-1.94 -0.43,-1.94 L -0.43,-1.94 Z"/></g><g transform="translate(250 263) rotate(0 12 -1.5)" stroke="none"><path fill="#1e1e1e" d="M -0.46,-1.84 Q -0.46,-1.84 1.85,-2.34 4.17,-2.84 6.42,-3.05 8.66,-3.25 10.67,-3.60 12.67,-3.95 17.29,-4.30 21.91,-4.64 22.19,-4.61 22.47,-4.58 22.73,-4.46 22.99,-4.34 23.19,-4.14 23.40,-3.95 23.53,-3.70 23.66,-3.45 23.71,-3.17 23.76,-2.89 23.71,-2.61 23.66,-2.33 23.53,-2.08 23.40,-1.83 23.19,-1.63 22.98,-1.44 22.73,-1.32 22.47,-1.20 22.19,-1.17 21.90,-1.14 21.63,-1.20 21.35,-1.26 21.11,-1.41 20.86,-1.56 20.68,-1.77 20.50,-1.99 20.39,-2.25 20.29,-2.52 20.27,-2.80 20.26,-3.08 20.34,-3.36 20.41,-3.63 20.57,-3.86 20.73,-4.10 20.96,-4.27 21.18,-4.44 21.45,-4.53 21.72,-4.62 22.00,-4.62 22.29,-4.62 22.56,-4.53 22.83,-4.44 23.05,-4.27 23.28,-4.09 23.44,-3.86 23.59,-3.62 23.67,-3.35 23.75,-3.08 23.73,-2.79 23.71,-2.51 23.61,-2.25 23.50,-1.98 23.32,-1.77 23.13,-1.55 22.89,-1.41 22.65,-1.26 22.37,-1.20 22.09,-1.14 22.09,-1.14 22.09,-1.14 17.67,-1.01 13.25,-0.88 11.14,-0.45 9.04,-0.01 7.03,0.26 5.02,0.54 2.74,1.19 0.46,1.84 0.23,1.87 0.00,1.90 -0.22,1.87 -0.45,1.85 -0.66,1.77 -0.88,1.69 -1.06,1.56 -1.25,1.43 -1.41,1.25 -1.56,1.08 -1.67,0.88 -1.78,0.68 -1.83,0.45 -1.89,0.23 -1.89,0.00 -1.89,-0.22 -1.83,-0.44 -1.78,-0.67 -1.67,-0.87 -1.57,-1.07 -1.42,-1.25 -1.26,-1.42 -1.07,-1.55 -0.89,-1.68 -0.67,-1.76 -0.46,-1.84 -0.46,-1.84 L -0.46,-1.84 Z"/></g></svg>