<svg version="1.1" xmlns="http://www.w3.org/2000/svg" viewBox="0 0 580.8293848331908 401.33313420930256" width="580.8293848331908" height="401.33313420930256">
  <!-- svg-source:excalidraw -->
  
  <defs>
    <style class="style-fonts">
      @font-face {
        font-family: "Virgil";
        src: url("https://excalidraw.com/Virgil.woff2");
      }
      @font-face {
        font-family: "Cascadia";
        src: url("https://excalidraw.com/Cascadia.woff2");
      }
    </style>
    
  </defs>
  <rect x="0" y="0" width="580.8293848331908" height="401.33313420930256" fill="#ffffff"/><g stroke-linecap="round"><g transform="translate(15 60.220325391259024) rotate(0 50 47)"><path d="M0 0 C23.71 0.2, 44.61 -1.38, 100 0 M0 0 C24.06 -0.87, 46.38 0.51, 100 0 M100 0 C100.62 23.23, 99.92 47.43, 100 94 M100 0 C99.38 23.5, 100.49 46.12, 100 94" stroke="#1e1e1e" stroke-width="2" fill="none"/></g></g><mask/><g stroke-linecap="round"><g transform="translate(10 11.505855575261478) rotate(0 72.4354462386699 66.85723490799877)"><path d="M0 0 C34.82 -2.3, 73.31 -1.69, 144.87 0 M0 0 C49.62 -0.4, 99.73 -0.72, 144.87 0 M144.87 0 C147.46 38.68, 146.94 76.4, 144.87 133.71 M144.87 0 C146 49.38, 145.14 97.43, 144.87 133.71" stroke="#1e1e1e" stroke-width="2" fill="none"/></g></g><mask/><g stroke-linecap="round"><g transform="translate(115 149.22032539125902) rotate(0 227.5 56)"><path d="M0.25 -0.7 C8.03 28.22, 8.73 133.85, 45.94 174.09 C83.16 214.33, 166.31 237.59, 223.54 240.73 C280.78 243.87, 352.06 225.56, 389.35 192.93 C426.64 160.3, 436.49 98.49, 447.28 44.93 C458.06 -8.62, 452.61 -99.45, 454.05 -128.42 M-1.08 1.55 C7.13 30.63, 10.74 135.62, 48.1 175.68 C85.46 215.74, 166.12 239.38, 223.06 241.91 C280.01 244.44, 352.11 223.54, 389.78 190.86 C427.45 158.18, 438.22 99.15, 449.09 45.82 C459.95 -7.52, 454.24 -99.82, 454.96 -129.15" stroke="#1e1e1e" stroke-width="2" fill="none"/></g></g><mask/><g stroke-linecap="round"><g transform="translate(155.6265084309558 134.54500590712587) rotate(0 173.52624616886155 50.7063015634169)"><path d="M1.02 -0.47 C7.08 25.51, 8.1 120.54, 36.14 157.01 C64.18 193.48, 125.7 215.34, 169.25 218.34 C212.8 221.35, 268.9 204.62, 297.45 175.03 C326 145.43, 332.37 89.31, 340.57 40.78 C348.76 -7.76, 345.41 -89.95, 346.63 -116.17 M0.09 -1.77 C6.04 24.89, 6.74 121.35, 35.34 158.27 C63.94 195.18, 127.91 217.26, 171.7 219.73 C215.49 222.2, 269.68 202.77, 298.09 173.09 C326.49 143.41, 333.86 89.99, 342.15 41.66 C350.44 -6.67, 347.3 -90.31, 347.82 -116.88" stroke="#1e1e1e" stroke-width="2" fill="none"/></g></g><mask/></svg>