<svg version="1.1" xmlns="http://www.w3.org/2000/svg" viewBox="0 0 574.8293848331908 590.6710910744537" width="574.8293848331908" height="590.6710910744537">
  <!-- svg-source:excalidraw -->
  
  <defs>
    <style class="style-fonts">
      @font-face {
        font-family: "Virgil";
        src: url("https://excalidraw.com/Virgil.woff2");
      }
      @font-face {
        font-family: "Cascadia";
        src: url("https://excalidraw.com/Cascadia.woff2");
      }
    </style>
    
  </defs>
  <rect x="0" y="0" width="574.8293848331908" height="590.6710910744537" fill="#ffffff"/><g stroke-linecap="round"><g transform="translate(10 240.55828225641017) rotate(0 50 47)"><path d="M0 0 C23.71 0.2, 44.61 -1.38, 100 0 M0 0 C24.06 -0.87, 46.38 0.51, 100 0 M100 0 C100.62 23.23, 99.92 47.43, 100 94 M100 0 C99.38 23.5, 100.49 46.12, 100 94" stroke="#1e1e1e" stroke-width="2" fill="none"/></g></g><mask/><g stroke-linecap="round"><g transform="translate(12 196.84381244041262) rotate(0 72.4354462386699 66.85723490799877)"><path d="M0 0 C34.82 -2.3, 73.31 -1.69, 144.87 0 M0 0 C49.62 -0.4, 99.73 -0.72, 144.87 0 M144.87 0 C147.46 38.68, 146.94 76.4, 144.87 133.71 M144.87 0 C146 49.38, 145.14 97.43, 144.87 133.71" stroke="#1e1e1e" stroke-width="2" fill="none"/></g></g><mask/><g stroke-linecap="round"><g transform="translate(109 338.55828225641017) rotate(0 227.5 56)"><path d="M0.25 -0.7 C8.03 28.22, 8.73 133.85, 45.94 174.09 C83.16 214.33, 166.31 237.59, 223.54 240.73 C280.78 243.87, 352.06 225.56, 389.35 192.93 C426.64 160.3, 436.49 98.49, 447.28 44.93 C458.06 -8.62, 452.61 -99.45, 454.05 -128.42 M-1.08 1.55 C7.13 30.63, 10.74 135.62, 48.1 175.68 C85.46 215.74, 166.12 239.38, 223.06 241.91 C280.01 244.44, 352.11 223.54, 389.78 190.86 C427.45 158.18, 438.22 99.15, 449.09 45.82 C459.95 -7.52, 454.24 -99.82, 454.96 -129.15" stroke="#1e1e1e" stroke-width="2" fill="none"/></g></g><mask/><g stroke-linecap="round"><g transform="translate(86.6265084309558 139.0773752422631) rotate(0 227.5 56)"><path d="M1.02 -0.47 C8.94 28.25, 10.43 133.19, 47.29 173.46 C84.14 213.73, 165.08 237.84, 222.16 241.13 C279.23 244.41, 352.29 225.88, 389.74 193.18 C427.19 160.48, 436.05 98.53, 446.85 44.94 C457.66 -8.65, 453.08 -99.42, 454.57 -128.37 M0.09 -1.77 C7.9 27.63, 9.07 134, 46.49 174.71 C83.91 215.43, 167.29 239.76, 224.61 242.51 C281.92 245.26, 353.07 224.02, 390.37 191.24 C427.68 158.46, 437.54 99.2, 448.44 45.82 C459.34 -7.57, 454.97 -99.78, 455.76 -129.08" stroke="#1e1e1e" stroke-width="2" fill="none"/></g></g><mask/></svg>