<svg version="1.1" xmlns="http://www.w3.org/2000/svg" viewBox="0 0 546.0606060606061 385.37005780312074" width="546.0606060606061" height="385.37005780312074">
  <!-- svg-source:excalidraw -->
  
  <defs>
    <style class="style-fonts">
      @font-face {
        font-family: "Virgil";
        src: url("https://excalidraw.com/Virgil.woff2");
      }
      @font-face {
        font-family: "Cascadia";
        src: url("https://excalidraw.com/Cascadia.woff2");
      }
    </style>
    
  </defs>
  <rect x="0" y="0" width="546.0606060606061" height="385.37005780312074" fill="#ffffff"/><g stroke-linecap="round" transform="translate(10.141660289306515 117.37005780312074) rotate(0 38.5 129)"><path d="M0 0 C22 0, 44 0, 77 0 M0 0 C26.05 0, 52.11 0, 77 0 M77 0 C77 96.04, 77 192.09, 77 258 M77 0 C77 69.57, 77 139.13, 77 258 M77 258 C46.88 258, 16.76 258, 0 258 M77 258 C56.35 258, 35.7 258, 0 258 M0 258 C0 187.75, 0 117.49, 0 0 M0 258 C0 158.56, 0 59.12, 0 0" stroke="#1e1e1e" stroke-width="4" fill="none"/></g><g stroke-linecap="round" transform="translate(88.14166028930651 298.37005780312074) rotate(0 122 18)"><path d="M0 0 C79.56 0, 159.13 0, 244 0 M0 0 C96.3 0, 192.6 0, 244 0 M244 0 C244 11.68, 244 23.36, 244 36 M244 0 C244 10.65, 244 21.31, 244 36 M244 36 C187.33 36, 130.66 36, 0 36 M244 36 C157.08 36, 70.16 36, 0 36 M0 36 C0 23.7, 0 11.4, 0 0 M0 36 C0 26.48, 0 16.96, 0 0" stroke="#1e1e1e" stroke-width="4" fill="none"/></g><g stroke-linecap="round" transform="translate(334.1416602893065 108.37005780312074) rotate(0 100.5 133)"><path d="M0 0 C65.2 0, 130.39 0, 201 0 M0 0 C71.09 0, 142.18 0, 201 0 M201 0 C201 95.2, 201 190.39, 201 266 M201 0 C201 72.09, 201 144.18, 201 266 M201 266 C149.53 266, 98.05 266, 0 266 M201 266 C137.71 266, 74.42 266, 0 266 M0 266 C0 165.81, 0 65.62, 0 0 M0 266 C0 183.05, 0 100.11, 0 0" stroke="#1e1e1e" stroke-width="4" fill="none"/></g><g transform="translate(379.1416602893065 290.37005780312074) rotate(0 -2 -1)" stroke="none"><path fill="transparent" d="M 6.16,-1.92 Q 6.16,-1.92 6.25,-0.37 6.35,1.16 5.71,2.57 5.08,3.98 3.86,4.93 2.64,5.88 1.12,6.16 -0.39,6.44 -1.86,5.98 -3.34,5.52 -4.43,4.43 -5.52,3.33 -5.98,1.86 -6.44,0.38 -6.16,-1.13 -5.88,-2.65 -4.93,-3.86 -3.98,-5.08 -2.57,-5.71 -1.16,-6.35 0.37,-6.25 1.92,-6.16 3.24,-5.36 4.56,-4.56 5.36,-3.24 L 6.16,-1.92 Z"/></g><g transform="translate(344.1416602893065 322.37005780312074) rotate(0 -10 -6)" stroke="none"><path fill="transparent" d="M -2.04,6.12 Q -2.04,6.12 -3.88,5.16 -5.72,4.21 -7.25,-1.06 -8.79,-6.34 -6.63,-8.51 -4.47,-10.68 -4.04,-11.22 -3.60,-11.75 -3.06,-12.17 -2.51,-12.59 -1.88,-12.86 -1.25,-13.14 -0.57,-13.25 0.10,-13.37 0.78,-13.31 1.47,-13.26 2.12,-13.05 2.78,-12.84 3.36,-12.47 3.94,-12.11 4.42,-11.62 4.90,-11.12 5.25,-10.53 5.60,-9.94 5.80,-9.28 5.99,-8.62 6.02,-7.93 6.06,-7.24 5.92,-6.57 5.79,-5.90 5.50,-5.27 5.21,-4.65 0.30,-0.90 -4.59,2.85 -10.67,3.03 -16.75,3.21 -15.91,-2.22 -15.06,-7.66 -10.43,-10.23 -5.81,-12.79 -5.22,-13.29 -4.63,-13.78 -3.94,-13.93 -3.26,-14.08 -2.56,-14.06 -1.87,-14.04 -1.19,-13.85 -0.52,-13.66 0.08,-13.32 0.68,-12.98 1.19,-12.50 1.70,-12.02 2.08,-11.44 2.46,-10.85 2.69,-10.19 2.91,-9.53 2.98,-8.84 3.04,-8.14 2.94,-7.45 2.83,-6.76 2.56,-6.12 2.30,-5.47 1.88,-4.91 1.47,-4.35 0.94,-3.90 0.40,-3.46 -0.22,-3.15 -0.84,-2.84 -6.39,0.63 -11.93,4.11 -13.76,4.87 -15.59,5.63 -16.31,5.87 -17.04,6.11 -17.80,6.17 -18.56,6.22 -19.31,6.10 -20.07,5.97 -20.77,5.67 -21.47,5.37 -22.08,4.91 -22.69,4.45 -23.17,3.86 -23.65,3.26 -23.98,2.57 -24.30,1.88 -24.45,1.13 -24.60,0.38 -24.57,-0.37 -24.53,-1.13 -24.32,-1.87 -24.11,-2.60 -23.72,-3.26 -23.34,-3.92 -22.81,-4.47 -22.28,-5.02 -21.63,-5.42 -20.98,-5.83 -15.26,-9.81 -9.54,-13.80 -6.59,-15.23 -3.63,-16.66 -2.79,-16.79 -1.95,-16.92 -1.11,-16.78 -0.28,-16.64 0.46,-16.24 1.21,-15.84 1.80,-15.22 2.38,-14.60 2.73,-13.83 3.08,-13.05 3.17,-12.21 3.26,-11.36 3.07,-10.53 2.89,-9.70 2.45,-8.98 2.00,-8.25 1.35,-7.70 0.70,-7.16 -0.08,-6.85 -0.87,-6.53 -1.72,-6.49 -2.57,-6.45 -3.38,-6.68 -4.20,-6.91 -4.90,-7.39 -5.60,-7.87 -6.12,-8.55 -6.63,-9.23 -6.89,-10.04 -7.16,-10.84 -7.16,-11.69 -7.15,-12.54 -6.88,-13.35 -6.60,-14.15 -6.09,-14.83 -5.57,-15.50 -4.86,-15.97 -4.16,-16.45 -3.34,-16.67 -2.52,-16.89 -1.67,-16.84 -0.82,-16.80 -0.03,-16.48 0.74,-16.16 1.39,-15.61 2.04,-15.05 2.47,-14.32 2.90,-13.59 3.08,-12.76 3.26,-11.93 3.17,-11.09 3.07,-10.24 2.71,-9.47 2.35,-8.70 1.76,-8.09 1.18,-7.47 0.42,-7.08 -0.32,-6.68 -0.32,-6.68 -0.32,-6.68 -4.00,-3.82 -7.68,-0.96 -11.63,2.33 -15.59,5.63 -16.31,5.87 -17.04,6.11 -17.80,6.17 -18.56,6.22 -19.31,6.10 -20.07,5.97 -20.77,5.67 -21.47,5.37 -22.08,4.91 -22.69,4.45 -23.17,3.86 -23.65,3.26 -23.98,2.57 -24.30,1.88 -24.45,1.13 -24.60,0.38 -24.57,-0.37 -24.53,-1.13 -24.32,-1.86 -24.11,-2.60 -23.72,-3.26 -23.34,-3.92 -22.81,-4.47 -22.28,-5.02 -21.63,-5.42 -20.98,-5.83 -17.08,-7.43 -13.18,-9.04 -8.90,-11.41 -4.63,-13.78 -3.94,-13.93 -3.26,-14.08 -2.56,-14.06 -1.87,-14.04 -1.20,-13.85 -0.52,-13.66 0.07,-13.32 0.68,-12.98 1.19,-12.50 1.70,-12.02 2.08,-11.44 2.46,-10.85 2.69,-10.19 2.91,-9.53 2.98,-8.84 3.04,-8.14 2.94,-7.45 2.83,-6.76 2.56,-6.12 2.30,-5.47 1.88,-4.91 1.47,-4.35 0.94,-3.90 0.40,-3.46 -0.22,-3.15 -0.84,-2.84 -1.25,-2.42 -1.66,-1.99 -5.75,0.22 -9.84,2.44 -11.45,-2.05 -13.05,-6.54 -8.76,-8.61 -4.47,-10.68 -4.04,-11.22 -3.61,-11.75 -3.06,-12.17 -2.51,-12.59 -1.88,-12.86 -1.25,-13.14 -0.57,-13.25 0.10,-13.37 0.78,-13.31 1.47,-13.26 2.12,-13.05 2.78,-12.84 3.36,-12.47 3.94,-12.11 4.42,-11.62 4.90,-11.12 5.25,-10.53 5.60,-9.94 5.79,-9.28 5.99,-8.62 6.02,-7.93 6.06,-7.25 5.92,-6.57 5.79,-5.90 5.50,-5.27 5.21,-4.65 2.01,-5.58 -1.17,-6.51 0.43,-6.31 2.04,-6.12 2.74,-5.79 3.44,-5.45 4.05,-4.96 4.65,-4.47 5.12,-3.85 5.58,-3.23 5.89,-2.51 6.20,-1.79 6.32,-1.03 6.45,-0.26 6.38,0.51 6.32,1.28 6.08,2.02 5.83,2.76 5.41,3.42 5.00,4.08 4.44,4.62 3.88,5.15 3.20,5.54 2.53,5.93 1.78,6.15 1.03,6.37 0.26,6.40 -0.51,6.43 -1.27,6.28 -2.04,6.12 -2.04,6.12 L -2.04,6.12 Z"/></g><g transform="translate(336.1416602893065 311.37005780312074) rotate(0 2.5 1.5)" stroke="none"><path fill="transparent" d="M -2.67,-5.87 Q -2.67,-5.87 0.59,-7.08 3.86,-8.29 5.97,-9.60 8.07,-10.91 8.77,-11.14 9.46,-11.36 10.19,-11.42 10.91,-11.47 11.63,-11.35 12.35,-11.23 13.02,-10.94 13.69,-10.65 14.27,-10.21 14.85,-9.77 15.31,-9.20 15.77,-8.64 16.08,-7.98 16.39,-7.32 16.53,-6.60 16.67,-5.89 16.64,-5.16 16.60,-4.43 16.40,-3.73 16.19,-3.03 15.82,-2.40 15.46,-1.77 14.95,-1.25 14.44,-0.72 13.82,-0.34 13.20,0.04 8.95,3.23 4.70,6.42 0.92,9.42 -2.84,12.42 -3.49,12.77 -4.14,13.12 -4.86,13.31 -5.57,13.49 -6.31,13.50 -7.04,13.51 -7.76,13.34 -8.48,13.18 -9.14,12.84 -9.80,12.51 -10.35,12.03 -10.91,11.54 -11.34,10.94 -11.77,10.34 -12.04,9.65 -12.31,8.97 -12.40,8.24 -12.50,7.50 -12.42,6.77 -12.34,6.04 -12.09,5.34 -11.84,4.65 -11.43,4.04 -11.02,3.43 -10.47,2.93 -9.92,2.44 -7.36,2.74 -4.80,3.05 -4.80,2.20 -4.81,1.35 -4.55,0.55 -4.28,-0.25 -3.78,-0.93 -3.27,-1.61 -2.57,-2.10 -1.87,-2.58 -1.05,-2.81 -0.23,-3.05 0.60,-3.01 1.45,-2.97 2.25,-2.66 3.04,-2.36 3.69,-1.81 4.34,-1.27 4.79,-0.54 5.23,0.17 5.42,1.00 5.61,1.83 5.53,2.67 5.44,3.52 5.09,4.29 4.74,5.07 4.16,5.69 3.58,6.31 2.84,6.72 2.09,7.12 1.25,7.27 0.41,7.41 -0.42,7.28 -1.26,7.15 -2.01,6.76 -2.76,6.37 -3.35,5.76 -3.94,5.14 -4.31,4.38 -4.67,3.61 -4.77,2.76 -4.87,1.92 -4.69,1.09 -4.52,0.26 -4.09,-0.47 -3.65,-1.20 -3.01,-1.75 -2.37,-2.31 -1.58,-2.63 -0.79,-2.95 0.04,-3.01 0.89,-3.06 1.71,-2.84 2.53,-2.62 3.24,-2.15 3.95,-1.68 4.47,-1.00 4.99,-0.33 5.27,0.46 5.55,1.26 5.55,1.26 5.55,1.26 1.35,6.84 -2.84,12.42 -3.49,12.77 -4.14,13.12 -4.85,13.31 -5.57,13.49 -6.31,13.50 -7.04,13.51 -7.76,13.34 -8.48,13.18 -9.14,12.84 -9.80,12.51 -10.35,12.03 -10.91,11.54 -11.34,10.94 -11.77,10.34 -12.04,9.65 -12.31,8.97 -12.40,8.24 -12.50,7.51 -12.42,6.77 -12.34,6.04 -12.09,5.35 -11.84,4.65 -11.43,4.04 -11.02,3.43 -10.47,2.93 -9.92,2.44 -6.39,-0.31 -2.86,-3.07 2.60,-6.99 8.07,-10.91 8.77,-11.14 9.46,-11.36 10.19,-11.42 10.91,-11.47 11.63,-11.35 12.35,-11.23 13.02,-10.94 13.69,-10.65 14.27,-10.21 14.85,-9.77 15.31,-9.20 15.77,-8.64 16.08,-7.98 16.39,-7.32 16.53,-6.60 16.67,-5.89 16.64,-5.16 16.60,-4.43 16.40,-3.73 16.19,-3.03 15.82,-2.40 15.46,-1.77 14.95,-1.25 14.44,-0.73 13.82,-0.34 13.20,0.04 10.99,1.29 8.78,2.54 5.72,4.20 2.67,5.87 1.92,6.11 1.18,6.34 0.41,6.39 -0.36,6.44 -1.13,6.30 -1.89,6.17 -2.60,5.85 -3.31,5.53 -3.93,5.05 -4.54,4.58 -5.03,3.97 -5.51,3.36 -5.83,2.65 -6.15,1.94 -6.29,1.17 -6.44,0.41 -6.39,-0.36 -6.35,-1.14 -6.12,-1.88 -5.89,-2.62 -5.49,-3.29 -5.09,-3.96 -4.54,-4.51 -4.00,-5.06 -3.33,-5.47 -2.67,-5.87 -2.67,-5.87 L -2.67,-5.87 Z"/></g><g transform="translate(332.1416602893065 320.37005780312074) rotate(0 -0.5 -2.5)" stroke="none"><path fill="transparent" d="M -5.25,-3.75 Q -5.25,-3.75 -3.81,-5.77 -2.36,-7.79 0.00,-9.84 2.38,-11.89 3.00,-12.35 3.61,-12.82 4.32,-13.12 5.03,-13.42 5.80,-13.55 6.56,-13.67 7.33,-13.61 8.10,-13.55 8.83,-13.31 9.56,-13.07 10.21,-12.65 10.87,-12.24 11.40,-11.69 11.94,-11.13 12.32,-10.46 12.71,-9.80 12.93,-9.05 13.14,-8.31 13.17,-7.54 13.21,-6.77 13.05,-6.02 12.90,-5.26 12.57,-4.56 12.24,-3.86 11.75,-3.27 11.27,-2.67 8.23,0.30 5.19,3.27 2.85,7.40 0.51,11.53 -0.04,12.22 -0.61,12.92 -1.33,13.46 -2.05,14.00 -2.88,14.35 -3.70,14.70 -4.59,14.84 -5.48,14.99 -6.37,14.91 -7.27,14.84 -8.12,14.55 -8.97,14.27 -9.73,13.79 -10.49,13.31 -11.11,12.66 -11.73,12.01 -12.18,11.23 -12.63,10.45 -12.87,9.59 -13.12,8.73 -13.16,7.83 -13.19,6.93 -13.01,6.05 -12.83,5.17 -12.45,4.36 -12.06,3.55 -8.51,-0.25 -4.97,-4.06 -1.82,-7.59 1.31,-11.12 2.03,-11.68 2.74,-12.24 3.57,-12.62 4.40,-12.99 5.30,-13.15 6.19,-13.32 7.10,-13.26 8.00,-13.20 8.87,-12.93 9.74,-12.66 10.52,-12.19 11.29,-11.72 11.93,-11.08 12.58,-10.43 13.05,-9.66 13.52,-8.88 13.79,-8.01 14.05,-7.14 14.11,-6.23 14.16,-5.33 14.00,-4.43 13.83,-3.54 13.46,-2.71 13.09,-1.88 12.52,-1.17 11.96,-0.45 5.66,1.69 -0.63,3.85 -5.15,6.92 -9.67,9.98 -10.48,10.40 -11.29,10.81 -12.17,11.02 -13.06,11.24 -13.97,11.23 -14.88,11.22 -15.76,11.00 -16.64,10.77 -17.44,10.34 -18.25,9.91 -18.92,9.31 -19.60,8.70 -20.11,7.94 -20.62,7.19 -20.94,6.34 -21.26,5.48 -21.36,4.58 -21.46,3.67 -21.35,2.77 -21.23,1.87 -20.90,1.02 -20.57,0.17 -20.05,-0.56 -19.52,-1.31 -18.84,-1.91 -18.15,-2.51 -14.27,-6.14 -10.40,-9.78 -5.77,-13.19 -1.15,-16.59 -0.45,-16.89 0.24,-17.20 0.99,-17.67 1.74,-18.15 2.58,-18.43 3.41,-18.71 4.30,-18.78 5.18,-18.86 6.05,-18.72 6.92,-18.58 7.74,-18.24 8.55,-17.89 9.26,-17.36 9.97,-16.83 10.53,-16.15 11.10,-15.46 11.48,-14.67 11.86,-13.87 12.04,-13.00 12.22,-12.13 12.18,-11.25 12.15,-10.37 11.91,-9.52 11.66,-8.66 11.22,-7.90 10.78,-7.13 10.17,-6.49 9.56,-5.85 5.43,-2.43 1.30,0.98 -2.10,4.32 -5.50,7.66 -6.29,8.13 -7.08,8.59 -7.96,8.86 -8.84,9.12 -9.76,9.16 -10.67,9.21 -11.57,9.03 -12.48,8.86 -13.31,8.47 -14.14,8.08 -14.86,7.51 -15.57,6.94 -16.13,6.21 -16.69,5.48 -17.05,4.64 -17.42,3.80 -17.57,2.89 -17.73,1.99 -17.66,1.07 -17.60,0.16 -17.31,-0.71 -17.03,-1.58 -16.55,-2.36 -16.06,-3.14 -15.41,-3.78 -14.75,-4.42 -8.93,-7.21 -3.11,-10.01 3.68,-13.66 10.49,-17.31 11.26,-17.66 12.04,-18.01 12.88,-18.09 13.73,-18.17 14.56,-17.98 15.38,-17.79 16.11,-17.34 16.83,-16.89 17.37,-16.24 17.92,-15.59 18.22,-14.79 18.53,-14.00 18.56,-13.15 18.60,-12.30 18.36,-11.48 18.13,-10.67 17.64,-9.97 17.16,-9.27 16.47,-8.77 15.79,-8.26 14.98,-8.00 14.17,-7.74 13.32,-7.75 12.47,-7.76 11.67,-8.04 10.87,-8.32 10.20,-8.84 9.53,-9.36 9.06,-10.07 8.59,-10.78 8.37,-11.60 8.16,-12.42 8.21,-13.27 8.27,-14.12 8.59,-14.91 8.91,-15.69 9.47,-16.33 10.03,-16.97 10.76,-17.40 11.50,-17.83 12.33,-18.01 13.16,-18.18 14.01,-18.08 14.85,-17.97 15.62,-17.61 16.38,-17.24 16.99,-16.65 17.60,-16.06 17.99,-15.30 18.38,-14.55 18.51,-13.71 18.64,-12.87 18.49,-12.03 18.34,-11.19 17.93,-10.45 17.53,-9.70 16.90,-9.12 16.28,-8.55 16.28,-8.55 16.28,-8.55 10.47,-3.45 4.66,1.64 -0.41,4.65 -5.50,7.66 -6.29,8.13 -7.08,8.59 -7.96,8.86 -8.84,9.12 -9.76,9.16 -10.67,9.21 -11.57,9.03 -12.47,8.86 -13.31,8.47 -14.14,8.08 -14.85,7.51 -15.57,6.94 -16.13,6.21 -16.69,5.48 -17.05,4.64 -17.42,3.80 -17.57,2.89 -17.73,1.99 -17.66,1.07 -17.60,0.16 -17.31,-0.71 -17.03,-1.58 -16.55,-2.36 -16.06,-3.14 -15.41,-3.78 -14.75,-4.42 -11.03,-7.81 -7.31,-11.21 -3.53,-14.20 0.24,-17.20 0.99,-17.67 1.74,-18.15 2.57,-18.43 3.41,-18.71 4.29,-18.78 5.18,-18.86 6.05,-18.72 6.92,-18.58 7.74,-18.24 8.55,-17.89 9.26,-17.36 9.97,-16.83 10.53,-16.15 11.10,-15.46 11.48,-14.67 11.86,-13.87 12.04,-13.00 12.22,-12.13 12.18,-11.25 12.15,-10.37 11.91,-9.52 11.66,-8.67 11.22,-7.90 10.78,-7.13 10.17,-6.49 9.56,-5.85 8.79,-5.51 8.01,-5.18 3.68,-1.71 -0.64,1.74 -5.15,5.86 -9.67,9.98 -10.48,10.40 -11.29,10.81 -12.17,11.02 -13.06,11.24 -13.97,11.23 -14.88,11.22 -15.76,11.00 -16.64,10.77 -17.44,10.34 -18.25,9.91 -18.92,9.31 -19.60,8.70 -20.11,7.94 -20.62,7.19 -20.94,6.34 -21.26,5.48 -21.36,4.58 -21.46,3.67 -21.35,2.77 -21.23,1.87 -20.90,1.02 -20.57,0.17 -20.05,-0.56 -19.53,-1.31 -18.84,-1.91 -18.15,-2.51 -14.48,-4.73 -10.82,-6.95 -4.75,-9.04 1.31,-11.12 2.03,-11.68 2.74,-12.24 3.57,-12.62 4.40,-12.99 5.29,-13.15 6.19,-13.32 7.10,-13.26 8.00,-13.20 8.87,-12.93 9.74,-12.66 10.51,-12.19 11.29,-11.72 11.93,-11.08 12.58,-10.43 13.05,-9.66 13.52,-8.88 13.79,-8.01 14.05,-7.14 14.11,-6.23 14.16,-5.33 14.00,-4.43 13.83,-3.54 13.46,-2.71 13.09,-1.88 12.53,-1.17 11.96,-0.45 10.58,1.70 9.20,3.87 4.86,7.70 0.52,11.53 -0.04,12.22 -0.61,12.92 -1.33,13.46 -2.05,14.00 -2.88,14.35 -3.70,14.70 -4.59,14.84 -5.47,14.99 -6.37,14.91 -7.26,14.84 -8.12,14.55 -8.97,14.27 -9.73,13.79 -10.49,13.31 -11.11,12.66 -11.73,12.01 -12.18,11.23 -12.62,10.46 -12.87,9.59 -13.12,8.73 -13.16,7.83 -13.19,6.93 -13.01,6.06 -12.83,5.18 -12.45,4.36 -12.06,3.55 -11.90,2.72 -11.73,1.89 -8.32,-2.03 -4.91,-5.95 -1.26,-8.92 2.38,-11.89 3.00,-12.35 3.61,-12.82 4.32,-13.12 5.03,-13.42 5.79,-13.55 6.56,-13.67 7.33,-13.61 8.09,-13.55 8.83,-13.31 9.56,-13.07 10.21,-12.65 10.87,-12.24 11.40,-11.69 11.94,-11.13 12.32,-10.46 12.71,-9.80 12.93,-9.06 13.14,-8.31 13.17,-7.54 13.21,-6.77 13.05,-6.02 12.90,-5.26 12.57,-4.56 12.24,-3.86 11.75,-3.27 11.27,-2.67 9.69,-1.46 8.11,-0.25 6.68,1.74 5.25,3.75 4.72,4.32 4.20,4.90 3.55,5.33 2.90,5.76 2.17,6.02 1.44,6.29 0.66,6.37 -0.10,6.45 -0.87,6.34 -1.64,6.24 -2.36,5.95 -3.09,5.66 -3.72,5.21 -4.35,4.76 -4.86,4.17 -5.37,3.58 -5.72,2.88 -6.07,2.19 -6.24,1.43 -6.42,0.67 -6.40,-0.10 -6.39,-0.88 -6.19,-1.63 -5.99,-2.38 -5.62,-3.06 -5.25,-3.75 -5.25,-3.75 L -5.25,-3.75 Z"/></g><g transform="translate(336.00286676169134 310.17084061603737) rotate(0 1.5078211526082157 6.634413071476175)" stroke="none"><path fill="#ffffff" d="M -2.39,-5.99 Q -2.39,-5.99 -0.11,-7.82 2.16,-9.66 3.10,-10.08 4.04,-10.51 4.99,-10.76 5.94,-11.01 6.92,-11.03 7.90,-11.05 8.85,-10.83 9.81,-10.61 10.68,-10.17 11.56,-9.73 12.30,-9.10 13.05,-8.46 13.62,-7.66 14.19,-6.87 14.55,-5.96 14.92,-5.05 15.05,-4.08 15.19,-3.11 15.09,-2.13 14.99,-1.16 14.66,-0.23 14.33,0.68 13.78,1.49 13.24,2.31 12.52,2.97 11.80,3.64 10.94,4.11 10.08,4.58 6.39,5.45 2.70,6.33 1.80,6.61 0.90,6.90 -0.03,6.96 -0.97,7.03 -1.90,6.86 -2.83,6.70 -3.69,6.31 -4.56,5.93 -5.30,5.35 -6.05,4.78 -6.63,4.04 -7.22,3.30 -7.61,2.44 -8.00,1.58 -8.18,0.65 -8.36,-0.26 -8.30,-1.21 -8.25,-2.15 -7.98,-3.05 -7.70,-3.95 -7.22,-4.76 -6.73,-5.57 -6.07,-6.25 -5.41,-6.92 -4.60,-7.41 -3.80,-7.90 -1.35,-8.20 1.10,-8.49 1.96,-8.78 2.82,-9.06 3.73,-9.13 4.63,-9.20 5.53,-9.05 6.42,-8.90 7.25,-8.54 8.09,-8.18 8.81,-7.63 9.53,-7.08 10.10,-6.38 10.67,-5.67 11.06,-4.85 11.44,-4.03 11.62,-3.14 11.80,-2.25 11.76,-1.34 11.72,-0.43 11.46,0.43 11.20,1.30 10.75,2.08 10.29,2.87 9.66,3.52 9.02,4.17 8.26,4.65 7.49,5.13 2.62,6.86 -2.23,8.58 -4.40,8.78 -6.56,8.98 -7.43,8.90 -8.29,8.83 -9.11,8.54 -9.93,8.26 -10.66,7.79 -11.38,7.32 -11.98,6.69 -12.57,6.06 -13.00,5.30 -13.42,4.55 -13.65,3.71 -13.89,2.88 -13.91,2.01 -13.94,1.15 -13.76,0.30 -13.57,-0.54 -13.19,-1.32 -12.82,-2.10 -12.26,-2.76 -11.71,-3.43 -11.01,-3.94 -10.31,-4.45 -9.51,-4.78 -8.71,-5.12 -7.85,-5.25 -7.00,-5.38 -2.56,-6.02 1.86,-6.66 0.69,-1.44 -0.47,3.77 -3.32,5.06 -6.17,6.36 -6.97,6.26 -7.76,6.17 -8.50,5.88 -9.25,5.60 -9.91,5.15 -10.56,4.69 -11.09,4.10 -11.62,3.50 -11.99,2.79 -12.36,2.08 -12.55,1.31 -12.74,0.53 -12.74,-0.25 -12.74,-1.05 -12.55,-1.83 -12.36,-2.60 -11.99,-3.31 -11.62,-4.01 -11.09,-4.61 -10.56,-5.21 -9.90,-5.66 -9.25,-6.11 -8.50,-6.40 -7.75,-6.68 -6.96,-6.78 -6.17,-6.87 -1.57,-6.31 3.01,-5.76 3.27,-6.10 3.53,-6.44 4.37,-6.51 5.20,-6.58 6.03,-6.45 6.86,-6.32 7.63,-5.99 8.40,-5.67 9.07,-5.17 9.74,-4.67 10.28,-4.02 10.81,-3.37 11.17,-2.62 11.53,-1.86 11.70,-1.04 11.87,-0.22 11.84,0.60 11.81,1.44 11.58,2.25 11.35,3.05 10.93,3.78 10.52,4.50 9.94,5.11 9.36,5.72 8.65,6.17 7.95,6.62 7.15,6.88 6.36,7.15 1.93,6.60 -2.49,6.05 -2.49,0.94 -2.49,-4.16 -2.70,-5.70 -2.91,-7.23 -2.13,-7.50 -1.35,-7.77 -0.53,-7.84 0.29,-7.91 1.10,-7.79 1.92,-7.66 2.68,-7.34 3.44,-7.02 4.11,-6.53 4.77,-6.04 5.30,-5.40 5.82,-4.77 6.18,-4.02 6.54,-3.28 6.71,-2.47 6.89,-1.66 6.86,-0.84 6.83,-0.01 6.61,0.77 6.38,1.57 5.97,2.29 5.57,3.00 5.00,3.60 4.43,4.20 3.73,4.65 3.04,5.10 -2.13,5.18 -7.32,5.26 -8.08,5.14 -8.85,5.03 -9.66,4.87 -10.47,4.72 -11.21,4.38 -11.96,4.04 -12.61,3.52 -13.26,3.01 -13.76,2.36 -14.27,1.71 -14.60,0.96 -14.93,0.20 -15.08,-0.60 -15.22,-1.41 -15.17,-2.23 -15.11,-3.05 -14.86,-3.84 -14.61,-4.63 -14.18,-5.33 -13.75,-6.03 -13.17,-6.61 -12.58,-7.19 -11.87,-7.61 -11.17,-8.03 -10.38,-8.28 -9.59,-8.52 -8.77,-8.56 -7.94,-8.61 -3.60,-8.76 0.73,-8.91 -0.94,-4.13 -2.61,0.64 -3.16,2.29 -3.71,3.95 -4.54,3.85 -5.37,3.75 -6.16,3.45 -6.95,3.15 -7.64,2.67 -8.33,2.20 -8.89,1.57 -9.44,0.94 -9.83,0.19 -10.22,-0.54 -10.42,-1.36 -10.62,-2.17 -10.62,-3.02 -10.62,-3.86 -10.42,-4.67 -10.22,-5.49 -9.83,-6.23 -9.44,-6.98 -8.88,-7.60 -8.32,-8.23 -7.63,-8.71 -6.94,-9.19 -6.15,-9.48 -5.37,-9.78 -4.53,-9.88 -3.70,-9.98 0.57,-10.24 4.85,-10.49 5.65,-10.46 6.46,-10.43 7.34,-10.32 8.23,-10.21 9.07,-9.90 9.90,-9.58 10.64,-9.07 11.37,-8.56 11.97,-7.89 12.56,-7.22 12.98,-6.43 13.39,-5.64 13.60,-4.77 13.82,-3.90 13.82,-3.01 13.82,-2.12 13.60,-1.25 13.39,-0.38 12.97,0.40 12.56,1.19 11.97,1.86 11.37,2.53 10.64,3.04 9.90,3.55 9.07,3.86 8.23,4.18 7.34,4.29 6.45,4.40 2.57,4.58 -1.30,4.77 -2.05,5.11 -2.79,5.46 -3.60,5.61 -4.41,5.77 -5.23,5.73 -6.05,5.68 -6.84,5.45 -7.63,5.21 -8.34,4.79 -9.04,4.37 -9.63,3.79 -10.22,3.22 -10.65,2.52 -11.08,1.82 -11.33,1.03 -11.58,0.25 -11.64,-0.56 -11.70,-1.38 -11.56,-2.19 -11.42,-3.00 -11.09,-3.75 -10.75,-4.51 -10.25,-5.16 -9.75,-5.81 -9.11,-6.32 -8.47,-6.84 -4.05,-7.07 0.35,-7.31 6.01,-0.95 11.67,5.39 8.19,8.04 4.71,10.68 0.50,12.49 -3.70,14.30 -4.50,14.52 -5.30,14.74 -6.13,14.77 -6.97,14.79 -7.78,14.62 -8.59,14.44 -9.34,14.08 -10.09,13.71 -10.73,13.18 -11.37,12.65 -11.86,11.97 -12.35,11.30 -12.67,10.53 -12.99,9.77 -13.11,8.94 -13.24,8.12 -13.16,7.29 -13.08,6.46 -12.81,5.68 -12.54,4.89 -12.09,4.19 -11.63,3.49 -11.03,2.92 -10.42,2.35 -9.70,1.94 -8.97,1.54 -4.65,1.16 -0.32,0.78 2.31,0.81 4.95,0.84 5.83,0.94 6.71,1.04 7.54,1.34 8.38,1.65 9.11,2.14 9.84,2.64 10.44,3.29 11.03,3.95 11.45,4.73 11.87,5.51 12.09,6.37 12.31,7.22 12.32,8.11 12.33,9.00 12.13,9.86 11.93,10.72 11.53,11.51 11.12,12.30 10.54,12.97 9.96,13.64 9.24,14.15 8.52,14.66 7.69,14.98 6.87,15.30 5.99,15.42 5.11,15.54 1.21,17.46 -2.68,19.38 -4.73,19.45 -6.79,19.53 -7.70,19.50 -8.61,19.48 -9.49,19.24 -10.37,19.00 -11.17,18.56 -11.96,18.11 -12.63,17.49 -13.30,16.87 -13.80,16.11 -14.30,15.34 -14.60,14.48 -14.90,13.62 -14.99,12.71 -15.08,11.80 -14.94,10.90 -14.81,10.00 -14.47,9.15 -14.12,8.31 -13.58,7.57 -13.05,6.83 -12.35,6.25 -11.65,5.66 -10.83,5.25 -10.02,4.85 -9.12,4.65 -8.23,4.46 -3.79,4.58 0.64,4.70 4.74,5.35 8.84,5.99 9.74,6.29 10.64,6.58 11.44,7.08 12.25,7.57 12.91,8.25 13.57,8.93 14.05,9.74 14.53,10.56 14.81,11.46 15.08,12.37 15.13,13.32 15.17,14.26 14.99,15.19 14.81,16.12 14.41,16.98 14.02,17.84 13.42,18.58 12.83,19.32 12.08,19.89 11.33,20.47 10.46,20.85 9.60,21.22 8.66,21.39 7.73,21.55 6.79,21.48 5.84,21.41 0.75,22.44 -4.33,23.47 -5.41,23.62 -6.48,23.77 -7.39,23.72 -8.30,23.67 -9.17,23.40 -10.04,23.13 -10.81,22.66 -11.59,22.20 -12.24,21.55 -12.88,20.91 -13.36,20.14 -13.83,19.36 -14.10,18.49 -14.37,17.63 -14.43,16.72 -14.49,15.81 -14.33,14.92 -14.17,14.02 -13.80,13.19 -13.43,12.36 -12.87,11.65 -12.31,10.93 -11.60,10.37 -10.88,9.81 -10.05,9.43 -9.23,9.05 -8.33,8.89 -7.44,8.72 -2.19,8.26 3.04,7.79 3.95,7.89 4.85,8.00 5.74,8.08 6.63,8.17 7.48,8.46 8.33,8.76 9.08,9.25 9.83,9.74 10.44,10.39 11.05,11.05 11.49,11.83 11.92,12.62 12.16,13.48 12.40,14.35 12.42,15.24 12.44,16.14 12.25,17.01 12.06,17.89 11.66,18.69 11.27,19.50 10.69,20.18 10.11,20.87 9.39,21.40 8.66,21.92 7.83,22.26 7.00,22.60 6.12,22.73 5.23,22.86 1.73,23.40 -1.77,23.93 -2.63,23.93 -3.49,23.93 -4.33,23.72 -5.17,23.51 -5.93,23.11 -6.70,22.70 -7.34,22.13 -7.98,21.56 -8.47,20.84 -8.96,20.13 -9.26,19.33 -9.57,18.52 -9.67,17.66 -9.77,16.80 -9.66,15.95 -9.56,15.09 -9.25,14.28 -8.94,13.48 -8.45,12.77 -7.96,12.06 -7.31,11.49 -6.66,10.92 -5.89,10.52 -5.13,10.12 -4.29,9.92 -3.45,9.71 0.99,8.99 5.44,8.26 8.51,9.64 11.57,11.03 12.41,11.16 13.25,11.30 14.00,11.70 14.75,12.10 15.33,12.72 15.92,13.34 16.27,14.11 16.63,14.88 16.72,15.73 16.81,16.57 16.63,17.40 16.44,18.23 16.00,18.96 15.57,19.69 14.92,20.23 14.27,20.78 13.48,21.10 12.69,21.41 11.84,21.46 10.99,21.50 10.17,21.27 9.35,21.04 8.65,20.57 7.95,20.09 7.43,19.41 6.92,18.73 6.65,17.93 6.38,17.12 6.38,16.27 6.38,15.42 6.66,14.62 6.93,13.81 7.44,13.14 7.96,12.46 8.66,11.98 9.37,11.51 10.19,11.28 11.01,11.06 11.85,11.10 12.70,11.15 13.49,11.47 14.28,11.78 14.93,12.33 15.57,12.88 16.01,13.61 16.45,14.34 16.63,15.17 16.81,16.00 16.72,16.85 16.63,17.69 16.27,18.46 15.91,19.23 15.32,19.85 14.74,20.47 13.99,20.86 13.24,21.26 12.40,21.40 11.56,21.53 11.56,21.53 11.56,21.53 9.37,22.69 7.19,23.84 2.71,23.89 -1.77,23.93 -2.63,23.93 -3.49,23.93 -4.33,23.72 -5.17,23.51 -5.93,23.11 -6.69,22.71 -7.34,22.13 -7.98,21.56 -8.47,20.85 -8.96,20.13 -9.26,19.33 -9.57,18.52 -9.67,17.66 -9.77,16.80 -9.66,15.95 -9.56,15.09 -9.25,14.29 -8.94,13.48 -8.45,12.77 -7.96,12.06 -7.31,11.49 -6.66,10.92 -5.90,10.52 -5.13,10.12 -4.29,9.92 -3.45,9.71 0.69,8.86 4.85,8.00 5.74,8.08 6.63,8.17 7.48,8.46 8.33,8.76 9.08,9.25 9.83,9.74 10.44,10.39 11.05,11.05 11.49,11.83 11.92,12.62 12.16,13.48 12.40,14.34 12.42,15.24 12.44,16.14 12.25,17.01 12.06,17.89 11.66,18.69 11.27,19.50 10.69,20.18 10.11,20.87 9.39,21.40 8.66,21.92 7.83,22.26 7.00,22.60 6.12,22.73 5.23,22.86 4.40,22.66 3.56,22.46 -1.45,23.12 -6.48,23.77 -7.39,23.72 -8.30,23.67 -9.17,23.40 -10.03,23.13 -10.81,22.66 -11.59,22.20 -12.24,21.56 -12.88,20.91 -13.36,20.14 -13.83,19.36 -14.10,18.50 -14.37,17.63 -14.43,16.72 -14.49,15.81 -14.33,14.92 -14.17,14.03 -13.80,13.20 -13.43,12.37 -12.87,11.65 -12.31,10.93 -11.60,10.37 -10.88,9.81 -10.06,9.43 -9.23,9.05 -8.33,8.89 -7.44,8.72 -3.73,8.22 -0.02,7.71 4.40,6.85 8.84,5.99 9.74,6.29 10.64,6.58 11.44,7.08 12.25,7.57 12.91,8.25 13.57,8.93 14.05,9.74 14.53,10.56 14.81,11.46 15.08,12.37 15.13,13.32 15.17,14.26 14.99,15.19 14.81,16.12 14.41,16.98 14.02,17.84 13.42,18.58 12.83,19.31 12.08,19.89 11.33,20.47 10.46,20.85 9.60,21.22 8.66,21.39 7.73,21.55 6.79,21.48 5.84,21.41 3.98,21.06 2.12,20.71 -2.33,20.12 -6.78,19.53 -7.70,19.50 -8.61,19.48 -9.49,19.24 -10.37,19.00 -11.17,18.56 -11.96,18.11 -12.63,17.49 -13.30,16.87 -13.80,16.11 -14.30,15.34 -14.60,14.48 -14.90,13.62 -14.99,12.71 -15.08,11.80 -14.94,10.90 -14.81,10.00 -14.47,9.15 -14.12,8.31 -13.59,7.57 -13.05,6.83 -12.35,6.25 -11.65,5.66 -10.83,5.25 -10.02,4.85 -9.13,4.65 -8.23,4.46 -6.34,4.18 -4.44,3.90 0.25,2.37 4.95,0.84 5.83,0.94 6.71,1.04 7.54,1.34 8.37,1.65 9.11,2.14 9.84,2.64 10.44,3.29 11.03,3.95 11.45,4.73 11.87,5.51 12.09,6.37 12.31,7.22 12.32,8.11 12.33,9.00 12.13,9.86 11.93,10.72 11.53,11.51 11.12,12.30 10.54,12.97 9.96,13.63 9.24,14.15 8.52,14.66 7.69,14.98 6.87,15.30 5.99,15.42 5.11,15.54 0.70,14.92 -3.70,14.30 -4.50,14.52 -5.30,14.74 -6.13,14.77 -6.96,14.79 -7.78,14.62 -8.59,14.44 -9.34,14.08 -10.09,13.71 -10.73,13.18 -11.37,12.65 -11.86,11.97 -12.35,11.30 -12.67,10.54 -12.99,9.77 -13.11,8.94 -13.24,8.12 -13.16,7.29 -13.08,6.46 -12.81,5.68 -12.54,4.89 -12.09,4.19 -11.63,3.49 -11.03,2.92 -10.42,2.35 -9.70,1.94 -8.97,1.54 -8.40,1.12 -7.82,0.70 -3.51,-1.47 0.79,-3.65 -0.25,0.55 -1.30,4.77 -2.05,5.11 -2.79,5.46 -3.60,5.61 -4.41,5.77 -5.23,5.73 -6.05,5.68 -6.84,5.45 -7.63,5.21 -8.34,4.79 -9.04,4.37 -9.63,3.79 -10.22,3.22 -10.65,2.52 -11.08,1.82 -11.33,1.03 -11.58,0.25 -11.64,-0.56 -11.70,-1.38 -11.56,-2.19 -11.42,-3.00 -11.09,-3.75 -10.75,-4.51 -10.25,-5.16 -9.75,-5.81 -9.11,-6.32 -8.47,-6.84 -5.99,-8.01 -3.51,-9.18 1.47,-9.80 6.45,-10.43 7.34,-10.32 8.23,-10.21 9.07,-9.90 9.90,-9.58 10.64,-9.07 11.37,-8.56 11.97,-7.89 12.56,-7.22 12.97,-6.43 13.39,-5.64 13.60,-4.77 13.82,-3.91 13.82,-3.01 13.82,-2.12 13.60,-1.25 13.39,-0.38 12.98,0.40 12.56,1.19 11.97,1.86 11.37,2.53 10.64,3.04 9.90,3.55 9.07,3.86 8.23,4.18 7.34,4.29 6.46,4.40 5.65,4.43 4.85,4.46 0.57,4.21 -3.71,3.95 -4.54,3.85 -5.37,3.75 -6.16,3.45 -6.95,3.15 -7.64,2.67 -8.33,2.20 -8.89,1.57 -9.44,0.94 -9.83,0.19 -10.22,-0.54 -10.42,-1.36 -10.62,-2.17 -10.62,-3.01 -10.62,-3.86 -10.42,-4.67 -10.22,-5.49 -9.83,-6.23 -9.44,-6.97 -8.88,-7.60 -8.32,-8.23 -7.63,-8.71 -6.94,-9.19 -6.15,-9.48 -5.37,-9.78 -4.53,-9.88 -3.70,-9.98 -1.84,-9.83 0.00,-9.67 4.08,-7.80 8.17,-5.94 4.45,-0.32 0.73,5.29 -4.05,5.16 -8.85,5.03 -9.65,4.87 -10.46,4.72 -11.21,4.38 -11.96,4.04 -12.61,3.52 -13.26,3.01 -13.76,2.36 -14.26,1.71 -14.60,0.96 -14.93,0.20 -15.08,-0.60 -15.22,-1.41 -15.17,-2.23 -15.11,-3.05 -14.86,-3.84 -14.61,-4.62 -14.18,-5.33 -13.75,-6.03 -13.17,-6.61 -12.58,-7.19 -11.87,-7.61 -11.17,-8.03 -10.38,-8.28 -9.59,-8.52 -8.77,-8.56 -7.94,-8.61 -5.43,-7.92 -2.91,-7.23 -2.13,-7.50 -1.35,-7.77 -0.53,-7.84 0.29,-7.91 1.10,-7.79 1.92,-7.66 2.68,-7.34 3.44,-7.02 4.11,-6.53 4.77,-6.04 5.30,-5.40 5.82,-4.77 6.18,-4.02 6.54,-3.28 6.71,-2.47 6.89,-1.66 6.86,-0.84 6.83,-0.01 6.61,0.77 6.38,1.57 5.97,2.28 5.57,3.00 5.00,3.60 4.43,4.20 3.74,4.65 3.04,5.10 0.56,5.97 -1.91,6.84 -6.19,5.80 -10.47,4.76 -8.75,-0.88 -7.04,-6.54 -1.75,-6.49 3.53,-6.44 4.37,-6.51 5.20,-6.58 6.03,-6.45 6.86,-6.32 7.63,-5.99 8.40,-5.67 9.07,-5.17 9.74,-4.67 10.27,-4.02 10.81,-3.37 11.17,-2.62 11.53,-1.86 11.70,-1.04 11.87,-0.22 11.84,0.60 11.81,1.44 11.58,2.25 11.35,3.05 10.93,3.78 10.52,4.50 9.94,5.11 9.36,5.72 8.65,6.17 7.95,6.62 7.15,6.88 6.36,7.15 4.47,7.60 2.57,8.06 -1.80,7.21 -6.17,6.36 -6.97,6.26 -7.76,6.17 -8.50,5.88 -9.25,5.60 -9.91,5.15 -10.56,4.69 -11.09,4.10 -11.62,3.50 -11.99,2.79 -12.36,2.08 -12.55,1.31 -12.74,0.54 -12.74,-0.25 -12.74,-1.05 -12.55,-1.83 -12.36,-2.60 -11.99,-3.31 -11.62,-4.01 -11.09,-4.61 -10.56,-5.21 -9.90,-5.66 -9.25,-6.11 -8.50,-6.40 -7.75,-6.68 -6.96,-6.78 -6.17,-6.87 -2.45,-7.35 1.25,-7.82 5.94,-6.08 10.62,-4.35 6.51,1.80 2.40,7.96 -2.08,8.47 -6.56,8.98 -7.43,8.90 -8.29,8.83 -9.11,8.54 -9.93,8.26 -10.65,7.79 -11.38,7.32 -11.98,6.69 -12.57,6.06 -13.00,5.30 -13.42,4.55 -13.65,3.71 -13.89,2.88 -13.91,2.01 -13.94,1.15 -13.76,0.30 -13.57,-0.54 -13.19,-1.32 -12.82,-2.09 -12.26,-2.76 -11.71,-3.43 -11.01,-3.94 -10.31,-4.45 -9.51,-4.78 -8.71,-5.12 -7.85,-5.25 -7.00,-5.38 -2.95,-6.93 1.10,-8.49 1.96,-8.78 2.82,-9.06 3.73,-9.13 4.63,-9.20 5.53,-9.05 6.42,-8.90 7.25,-8.54 8.09,-8.18 8.81,-7.63 9.53,-7.08 10.10,-6.38 10.67,-5.67 11.06,-4.85 11.44,-4.03 11.62,-3.14 11.80,-2.25 11.76,-1.34 11.72,-0.43 11.46,0.43 11.20,1.30 10.75,2.08 10.29,2.87 9.66,3.52 9.03,4.17 8.26,4.65 7.49,5.13 5.09,5.73 2.70,6.33 1.80,6.61 0.90,6.90 -0.03,6.96 -0.97,7.03 -1.90,6.86 -2.83,6.70 -3.69,6.31 -4.56,5.93 -5.30,5.35 -6.05,4.78 -6.63,4.04 -7.22,3.30 -7.61,2.44 -8.00,1.58 -8.18,0.65 -8.36,-0.26 -8.30,-1.21 -8.25,-2.15 -7.98,-3.05 -7.70,-3.95 -7.22,-4.76 -6.73,-5.57 -6.07,-6.24 -5.41,-6.92 -4.60,-7.41 -3.80,-7.90 0.12,-9.20 4.04,-10.51 4.99,-10.76 5.94,-11.01 6.91,-11.03 7.89,-11.05 8.85,-10.83 9.81,-10.61 10.68,-10.17 11.56,-9.73 12.30,-9.10 13.05,-8.46 13.62,-7.66 14.19,-6.87 14.55,-5.96 14.92,-5.05 15.05,-4.08 15.19,-3.11 15.09,-2.13 14.99,-1.16 14.66,-0.23 14.33,0.68 13.78,1.49 13.24,2.31 12.52,2.97 11.80,3.64 10.94,4.11 10.08,4.58 9.16,5.04 8.23,5.50 5.31,5.74 2.39,5.99 1.64,6.19 0.89,6.39 0.11,6.40 -0.66,6.42 -1.42,6.24 -2.18,6.07 -2.87,5.72 -3.57,5.37 -4.16,4.87 -4.75,4.36 -5.20,3.73 -5.66,3.10 -5.95,2.38 -6.23,1.65 -6.34,0.88 -6.45,0.11 -6.37,-0.65 -6.29,-1.43 -6.03,-2.16 -5.76,-2.89 -5.33,-3.54 -4.90,-4.19 -4.33,-4.72 -3.76,-5.24 -3.07,-5.62 -2.39,-5.99 -2.39,-5.99 L -2.39,-5.99 Z"/></g><g stroke-linecap="round"><g transform="translate(47.556761923635975 57.948863285947596) rotate(0 0.8137778826719568 24.820225421494683)"><path d="M0 0 C0.56 17.23, 1.13 34.45, 1.63 49.64 M0 0 C0.63 19.21, 1.26 38.41, 1.63 49.64" stroke="#1e1e1e" stroke-width="4" fill="none"/></g><g transform="translate(47.556761923635975 57.948863285947596) rotate(0 0.8137778826719568 24.820225421494683)"><path d="M-7.63 26.6 C-4.41 34.59, -1.2 42.59, 1.63 49.64 M-7.63 26.6 C-4.05 35.51, -0.47 44.43, 1.63 49.64" stroke="#1e1e1e" stroke-width="4" fill="none"/></g><g transform="translate(47.556761923635975 57.948863285947596) rotate(0 0.8137778826719568 24.820225421494683)"><path d="M9.35 26.04 C6.67 34.23, 3.99 42.42, 1.63 49.64 M9.35 26.04 C6.36 35.17, 3.38 44.3, 1.63 49.64" stroke="#1e1e1e" stroke-width="4" fill="none"/></g></g><mask/><g stroke-linecap="round"><g transform="translate(430.4235728821328 220.42797616429436) rotate(0 0.5978067504667024 -54.40041429247384)"><path d="M0 0 C0.32 -29.17, 0.64 -58.35, 1.2 -108.8 M0 0 C0.47 -42.44, 0.93 -84.89, 1.2 -108.8" stroke="#1e1e1e" stroke-width="4" fill="none"/></g><g transform="translate(430.4235728821328 220.42797616429436) rotate(0 0.5978067504667024 -54.40041429247384)"><path d="M11.15 -80.5 C8.48 -88.09, 5.81 -95.68, 1.2 -108.8 M11.15 -80.5 C7.26 -91.54, 3.38 -102.58, 1.2 -108.8" stroke="#1e1e1e" stroke-width="4" fill="none"/></g><g transform="translate(430.4235728821328 220.42797616429436) rotate(0 0.5978067504667024 -54.40041429247384)"><path d="M-9.37 -80.72 C-6.54 -88.25, -3.71 -95.78, 1.2 -108.8 M-9.37 -80.72 C-5.25 -91.68, -1.13 -102.63, 1.2 -108.8" stroke="#1e1e1e" stroke-width="4" fill="none"/></g></g><mask/><g transform="translate(405.3156893625295 238.3621786782967) rotate(0 1.7934202514002209 15.5429755121354)" stroke="none"><path fill="#1e1e1e" d="M -0.80,0 Q -0.80,0 -0.84,-0.34 -0.88,-0.68 -0.86,-0.79 -0.85,-0.89 -0.81,-0.99 -0.77,-1.09 -0.71,-1.18 -0.65,-1.27 -0.57,-1.34 -0.49,-1.41 -0.40,-1.46 -0.31,-1.51 -0.20,-1.53 -0.10,-1.56 0.00,-1.56 0.10,-1.56 0.20,-1.53 0.31,-1.51 0.40,-1.46 0.50,-1.41 0.57,-1.34 0.65,-1.27 0.71,-1.18 0.77,-1.09 0.81,-0.99 0.85,-0.89 0.86,-0.79 0.88,-0.68 0.89,0.19 0.90,1.08 0.89,3.86 0.89,6.64 0.89,10.57 0.88,14.51 0.87,18.58 0.87,22.66 0.84,25.41 0.81,28.16 2.18,29.29 3.55,30.42 3.54,30.50 3.53,30.58 3.50,30.65 3.47,30.73 3.43,30.79 3.38,30.86 3.32,30.91 3.26,30.96 3.19,31.00 3.12,31.03 3.05,31.05 2.97,31.07 2.89,31.07 2.81,31.07 2.73,31.05 2.66,31.03 2.59,31.00 2.52,30.96 2.46,30.91 2.40,30.86 2.35,30.79 2.31,30.73 2.28,30.65 2.25,30.58 2.24,30.50 2.23,30.42 2.45,30.11 2.68,29.80 2.78,29.78 2.88,29.76 2.99,29.78 3.09,29.80 3.19,29.85 3.28,29.89 3.36,29.97 3.43,30.05 3.48,30.14 3.52,30.24 3.53,30.34 3.55,30.45 3.52,30.55 3.50,30.66 3.45,30.75 3.39,30.84 3.31,30.91 3.23,30.98 3.13,31.02 3.04,31.06 2.93,31.07 2.82,31.07 2.72,31.05 2.62,31.02 2.53,30.96 2.44,30.90 2.38,30.82 2.31,30.73 2.28,30.63 2.24,30.53 2.24,30.43 2.24,30.32 2.27,30.22 2.31,30.12 2.37,30.03 2.43,29.95 2.52,29.89 2.61,29.83 2.71,29.80 2.81,29.77 2.92,29.77 3.03,29.78 3.13,29.82 3.22,29.85 3.31,29.92 3.39,29.99 3.44,30.08 3.50,30.17 3.52,30.28 3.55,30.38 3.53,30.49 3.52,30.59 3.48,30.69 3.44,30.78 3.36,30.86 3.29,30.94 3.42,30.68 3.55,30.42 3.54,30.50 3.53,30.58 3.50,30.65 3.47,30.73 3.43,30.79 3.38,30.86 3.32,30.91 3.26,30.96 3.19,31.00 3.12,31.03 3.05,31.05 2.97,31.07 2.89,31.07 2.81,31.07 2.73,31.05 2.66,31.03 2.59,31.00 2.52,30.96 2.46,30.91 2.40,30.86 2.35,30.79 2.31,30.73 2.28,30.65 2.25,30.58 2.24,30.50 2.23,30.42 0.71,29.32 -0.81,28.22 -0.84,25.44 -0.87,22.66 -0.87,18.58 -0.88,14.51 -0.89,10.57 -0.89,6.64 -0.89,3.86 -0.90,1.08 -0.89,0.19 -0.88,-0.68 -0.86,-0.79 -0.85,-0.89 -0.81,-0.99 -0.77,-1.09 -0.71,-1.18 -0.65,-1.27 -0.57,-1.34 -0.50,-1.41 -0.40,-1.46 -0.31,-1.51 -0.20,-1.53 -0.10,-1.56 -0.00,-1.56 0.10,-1.56 0.20,-1.53 0.31,-1.51 0.40,-1.46 0.49,-1.41 0.57,-1.34 0.65,-1.27 0.71,-1.18 0.77,-1.09 0.81,-0.99 0.85,-0.89 0.86,-0.79 0.88,-0.68 0.84,-0.34 0.80,0 0.79,0.09 0.78,0.19 0.74,0.28 0.71,0.37 0.65,0.45 0.60,0.53 0.53,0.59 0.45,0.66 0.37,0.70 0.28,0.75 0.19,0.77 0.09,0.80 -0.00,0.80 -0.09,0.80 -0.19,0.77 -0.28,0.75 -0.37,0.70 -0.45,0.66 -0.53,0.59 -0.60,0.53 -0.65,0.45 -0.71,0.37 -0.74,0.28 -0.78,0.19 -0.79,0.09 -0.80,-0.00 -0.80,-0.00 L -0.80,0 Z"/></g><g transform="translate(405.3156893625295 237.16656517736322) rotate(0 6.575874255134181 -1.7934202514002493)" stroke="none"><path fill="#1e1e1e" d="M -0.57,-0.57 Q -0.57,-0.57 0.12,-1.30 0.82,-2.03 2.32,-2.42 3.82,-2.81 4.64,-3.23 5.45,-3.66 7.00,-3.88 8.55,-4.10 10.42,-4.14 12.29,-4.18 12.40,-4.17 12.51,-4.16 12.60,-4.12 12.70,-4.08 12.78,-4.00 12.85,-3.93 12.91,-3.84 12.96,-3.75 12.97,-3.64 12.99,-3.54 12.98,-3.43 12.96,-3.33 12.91,-3.23 12.86,-3.14 12.79,-3.06 12.71,-2.99 12.62,-2.94 12.52,-2.90 12.41,-2.89 12.31,-2.87 12.20,-2.89 12.10,-2.92 12.01,-2.97 11.92,-3.02 11.85,-3.10 11.78,-3.18 11.74,-3.28 11.70,-3.38 11.69,-3.49 11.68,-3.59 11.71,-3.70 11.74,-3.80 11.80,-3.89 11.85,-3.98 11.94,-4.04 12.02,-4.11 12.12,-4.14 12.22,-4.18 12.33,-4.18 12.44,-4.18 12.54,-4.15 12.64,-4.11 12.72,-4.05 12.81,-3.99 12.87,-3.90 12.93,-3.81 12.96,-3.71 12.99,-3.61 12.98,-3.50 12.98,-3.39 12.94,-3.30 12.90,-3.20 12.84,-3.11 12.77,-3.03 12.68,-2.98 12.59,-2.92 12.48,-2.90 12.38,-2.87 12.38,-2.87 12.38,-2.87 10.58,-2.68 8.78,-2.48 7.49,-2.30 6.21,-2.12 5.21,-1.61 4.21,-1.10 3.07,-0.91 1.92,-0.71 1.24,-0.07 0.57,0.57 0.49,0.63 0.41,0.69 0.32,0.73 0.24,0.77 0.14,0.78 0.04,0.80 -0.04,0.79 -0.14,0.79 -0.23,0.76 -0.33,0.73 -0.41,0.68 -0.49,0.63 -0.56,0.56 -0.63,0.49 -0.68,0.41 -0.73,0.33 -0.76,0.23 -0.79,0.14 -0.79,0.04 -0.80,-0.04 -0.78,-0.14 -0.77,-0.24 -0.73,-0.32 -0.69,-0.41 -0.63,-0.49 -0.57,-0.57 -0.57,-0.57 L -0.57,-0.57 Z"/></g><g transform="translate(408.90252986532994 252.70954068949857) rotate(0 4.184647253267201 -2.39122700186698)" stroke="none"><path fill="#1e1e1e" d="M -0.72,0.36 Q -0.72,0.36 -1.13,-0.53 -1.54,-1.44 -1.34,-1.98 -1.14,-2.53 -0.65,-3.08 -0.16,-3.63 0.54,-3.95 1.25,-4.28 2.29,-4.38 3.34,-4.48 4.09,-4.51 4.84,-4.53 5.51,-4.52 6.18,-4.51 7.33,-4.72 8.48,-4.92 8.55,-4.92 8.63,-4.91 8.71,-4.88 8.78,-4.86 8.85,-4.81 8.91,-4.77 8.97,-4.71 9.02,-4.65 9.06,-4.58 9.10,-4.51 9.12,-4.44 9.14,-4.36 9.14,-4.28 9.14,-4.20 9.13,-4.13 9.11,-4.05 9.07,-3.98 9.04,-3.91 8.99,-3.85 8.94,-3.79 8.87,-3.74 8.81,-3.69 8.74,-3.66 8.66,-3.63 8.58,-3.62 8.51,-3.61 8.17,-3.97 7.84,-4.32 7.86,-4.42 7.89,-4.53 7.94,-4.62 8.00,-4.71 8.09,-4.77 8.17,-4.84 8.27,-4.88 8.37,-4.91 8.47,-4.92 8.58,-4.92 8.68,-4.89 8.78,-4.86 8.87,-4.79 8.96,-4.73 9.02,-4.64 9.08,-4.56 9.11,-4.46 9.14,-4.36 9.14,-4.25 9.14,-4.14 9.10,-4.04 9.06,-3.94 8.99,-3.86 8.93,-3.78 8.84,-3.72 8.75,-3.66 8.65,-3.64 8.54,-3.61 8.44,-3.62 8.33,-3.63 8.23,-3.67 8.14,-3.71 8.06,-3.79 7.98,-3.86 7.93,-3.95 7.87,-4.04 7.85,-4.15 7.83,-4.25 7.85,-4.36 7.86,-4.46 7.91,-4.56 7.96,-4.65 8.03,-4.73 8.11,-4.80 8.20,-4.85 8.30,-4.90 8.40,-4.91 8.51,-4.92 8.61,-4.90 8.72,-4.88 8.81,-4.83 8.90,-4.78 8.97,-4.70 9.04,-4.62 9.09,-4.52 9.13,-4.43 8.80,-4.67 8.48,-4.92 8.55,-4.92 8.63,-4.91 8.71,-4.88 8.78,-4.86 8.85,-4.81 8.91,-4.77 8.97,-4.71 9.02,-4.65 9.06,-4.58 9.10,-4.51 9.12,-4.44 9.14,-4.36 9.14,-4.28 9.14,-4.20 9.13,-4.13 9.11,-4.05 9.07,-3.98 9.04,-3.91 8.99,-3.85 8.94,-3.79 8.87,-3.74 8.81,-3.69 8.74,-3.66 8.66,-3.63 8.58,-3.62 8.51,-3.61 7.36,-3.11 6.22,-2.61 5.58,-2.57 4.94,-2.53 4.23,-2.48 3.53,-2.43 2.41,-2.29 1.29,-2.15 0.73,-1.73 0.16,-1.30 0.44,-0.83 0.72,-0.36 0.75,-0.26 0.78,-0.17 0.79,-0.08 0.80,0.01 0.79,0.11 0.77,0.20 0.74,0.29 0.70,0.38 0.65,0.46 0.59,0.54 0.51,0.61 0.44,0.67 0.35,0.71 0.27,0.76 0.17,0.78 0.08,0.80 -0.01,0.80 -0.11,0.79 -0.20,0.77 -0.30,0.74 -0.38,0.70 -0.47,0.65 -0.54,0.58 -0.61,0.52 -0.66,0.44 -0.72,0.36 -0.72,0.36 L -0.72,0.36 Z"/></g><g transform="translate(422.0542783755983 264.66567569883347) rotate(0 8.369294506534459 6.5758742551342095)" stroke="none"><path fill="#1e1e1e" d="M -0.44,-0.67 Q -0.44,-0.67 0.57,-1.40 1.59,-2.13 3.20,-2.48 4.82,-2.83 6.18,-2.95 7.54,-3.06 8.95,-3.04 10.36,-3.02 11.10,-2.26 11.83,-1.49 12.12,-0.71 12.41,0.07 12.17,1.23 11.93,2.39 11.10,3.92 10.27,5.45 9.23,7.11 8.20,8.77 7.04,10.20 5.89,11.62 4.70,12.92 3.52,14.22 2.69,14.70 1.86,15.18 1.78,15.56 1.69,15.94 1.59,15.99 1.50,16.03 1.39,16.05 1.29,16.08 1.18,16.07 1.08,16.07 0.97,16.04 0.87,16.01 0.78,15.96 0.69,15.91 0.61,15.84 0.53,15.76 0.47,15.67 0.42,15.58 0.38,15.48 0.35,15.38 0.34,15.28 0.33,15.17 0.34,15.07 0.36,14.96 0.40,14.86 0.44,14.76 0.50,14.68 0.57,14.59 0.65,14.52 0.73,14.46 1.75,13.82 2.78,13.18 4.20,12.22 5.63,11.26 7.26,10.15 8.89,9.03 10.31,8.20 11.72,7.37 12.80,6.98 13.89,6.59 14.75,7.98 15.62,9.36 15.70,9.34 15.78,9.33 15.86,9.33 15.93,9.33 16.01,9.35 16.09,9.37 16.16,9.40 16.23,9.44 16.29,9.50 16.34,9.55 16.39,9.61 16.43,9.68 16.46,9.75 16.49,9.83 16.50,9.91 16.50,9.99 16.49,10.06 16.48,10.14 16.46,10.22 16.43,10.29 16.38,10.35 16.33,10.42 16.27,10.47 16.21,10.52 16.14,10.56 16.07,10.60 16.21,10.50 16.35,10.40 16.27,10.47 16.19,10.54 16.09,10.58 15.99,10.62 15.88,10.63 15.78,10.63 15.67,10.60 15.57,10.57 15.48,10.51 15.40,10.45 15.33,10.37 15.27,10.29 15.23,10.18 15.20,10.08 15.20,9.98 15.20,9.87 15.23,9.77 15.27,9.67 15.33,9.59 15.40,9.50 15.49,9.44 15.57,9.38 15.68,9.35 15.78,9.33 15.88,9.33 15.99,9.34 16.09,9.38 16.19,9.42 16.27,9.48 16.35,9.55 16.40,9.64 16.46,9.74 16.48,9.84 16.50,9.94 16.49,10.05 16.48,10.15 16.44,10.25 16.39,10.35 16.32,10.42 16.25,10.50 16.15,10.55 16.06,10.60 15.95,10.62 15.85,10.64 15.74,10.62 15.64,10.60 15.54,10.55 15.45,10.50 15.38,10.42 15.30,10.35 15.26,10.25 15.22,10.15 15.20,10.05 15.19,9.94 15.22,9.84 15.24,9.73 15.43,9.55 15.62,9.36 15.70,9.34 15.78,9.33 15.86,9.33 15.93,9.33 16.01,9.35 16.09,9.37 16.16,9.40 16.23,9.44 16.29,9.50 16.34,9.55 16.39,9.61 16.43,9.68 16.46,9.75 16.49,9.83 16.50,9.91 16.50,9.99 16.49,10.06 16.48,10.14 16.46,10.22 16.43,10.29 16.38,10.35 16.33,10.42 16.27,10.47 16.22,10.52 16.14,10.56 16.07,10.60 15.25,9.68 14.43,8.76 13.64,9.05 12.85,9.34 11.49,10.12 10.12,10.90 8.44,11.97 6.76,13.03 5.25,13.94 3.74,14.86 2.72,15.40 1.69,15.94 1.59,15.99 1.50,16.03 1.39,16.05 1.29,16.08 1.18,16.07 1.08,16.07 0.97,16.04 0.87,16.01 0.78,15.96 0.69,15.91 0.61,15.84 0.53,15.76 0.47,15.67 0.42,15.58 0.38,15.48 0.35,15.38 0.34,15.28 0.33,15.17 0.34,15.07 0.36,14.96 0.40,14.86 0.44,14.76 0.50,14.68 0.57,14.59 0.65,14.52 0.73,14.46 0.67,14.37 0.60,14.29 1.45,13.69 2.30,13.08 3.45,11.83 4.60,10.58 5.69,9.23 6.78,7.89 7.79,6.26 8.80,4.64 9.56,3.30 10.32,1.96 10.41,0.74 10.50,-0.47 10.18,-1.03 9.86,-1.59 8.78,-1.47 7.70,-1.34 6.44,-1.21 5.17,-1.07 3.85,-0.84 2.53,-0.61 1.49,0.02 0.44,0.67 0.36,0.71 0.27,0.75 0.17,0.78 0.08,0.80 -0.01,0.80 -0.11,0.79 -0.20,0.77 -0.29,0.74 -0.38,0.70 -0.46,0.65 -0.54,0.59 -0.61,0.52 -0.66,0.44 -0.72,0.36 -0.75,0.27 -0.78,0.18 -0.79,0.08 -0.80,-0.01 -0.79,-0.10 -0.78,-0.20 -0.74,-0.29 -0.70,-0.38 -0.65,-0.46 -0.59,-0.54 -0.52,-0.60 -0.44,-0.67 -0.44,-0.67 L -0.44,-0.67 Z"/></g><g transform="translate(26.306209566613006 13.58684050280047) rotate(0 0.5978067504667308 14.94516876166864)" stroke="none"><path fill="#1e1e1e" d="M 0.80,0 Q 0.80,0 0.94,1.71 1.07,3.43 1.05,6.57 1.03,9.71 1.01,13.44 0.98,17.18 0.93,20.49 0.88,23.80 1.26,26.27 1.63,28.73 1.62,28.81 1.61,28.89 1.58,28.96 1.56,29.04 1.51,29.10 1.47,29.17 1.41,29.22 1.35,29.27 1.28,29.31 1.21,29.34 1.13,29.36 1.05,29.38 0.97,29.38 0.90,29.38 0.82,29.36 0.74,29.34 0.67,29.31 0.60,29.27 0.54,29.22 0.48,29.17 0.44,29.10 0.39,29.04 0.37,28.96 0.34,28.89 0.33,28.81 0.32,28.73 0.69,28.41 1.06,28.08 1.17,28.11 1.27,28.14 1.35,28.21 1.44,28.27 1.50,28.35 1.56,28.44 1.59,28.54 1.63,28.64 1.62,28.75 1.62,28.86 1.58,28.96 1.55,29.06 1.48,29.14 1.41,29.22 1.32,29.28 1.23,29.33 1.13,29.36 1.03,29.39 0.92,29.38 0.81,29.37 0.72,29.33 0.62,29.28 0.54,29.21 0.46,29.14 0.41,29.05 0.36,28.96 0.34,28.85 0.32,28.75 0.33,28.64 0.35,28.54 0.39,28.44 0.44,28.35 0.52,28.27 0.59,28.20 0.69,28.15 0.78,28.10 0.89,28.09 0.99,28.07 1.10,28.09 1.20,28.11 1.29,28.17 1.39,28.22 1.46,28.30 1.53,28.38 1.57,28.48 1.61,28.57 1.62,28.68 1.63,28.79 1.60,28.89 1.58,28.99 1.52,29.08 1.46,29.17 1.38,29.24 1.30,29.30 1.20,29.34 1.10,29.38 1.36,29.05 1.63,28.73 1.62,28.81 1.61,28.89 1.58,28.96 1.56,29.04 1.51,29.10 1.47,29.17 1.41,29.22 1.35,29.27 1.28,29.31 1.21,29.34 1.13,29.36 1.05,29.38 0.97,29.38 0.90,29.38 0.82,29.36 0.74,29.34 0.67,29.31 0.60,29.27 0.54,29.22 0.48,29.17 0.44,29.10 0.39,29.04 0.37,28.96 0.34,28.89 0.33,28.81 0.32,28.73 -0.28,26.27 -0.88,23.80 -0.93,20.49 -0.98,17.18 -1.01,13.44 -1.03,9.71 -1.05,6.57 -1.07,3.43 -0.94,1.71 -0.80,0 -0.79,-0.09 -0.78,-0.19 -0.74,-0.28 -0.71,-0.37 -0.65,-0.45 -0.60,-0.53 -0.53,-0.59 -0.45,-0.66 -0.37,-0.70 -0.28,-0.75 -0.19,-0.77 -0.09,-0.80 0.00,-0.80 0.09,-0.80 0.19,-0.77 0.28,-0.75 0.37,-0.70 0.45,-0.66 0.53,-0.59 0.60,-0.53 0.65,-0.45 0.71,-0.37 0.74,-0.28 0.78,-0.19 0.79,-0.09 0.80,0.00 0.80,0.00 L 0.80,0 Z"/></g><g transform="translate(27.501823067546468 12.39122700186698) rotate(0 6.5758742551342095 -1.19561350093349)" stroke="none"><path fill="#1e1e1e" d="M -0.36,-0.72 Q -0.36,-0.72 0.27,-1.17 0.90,-1.62 2.28,-2.12 3.66,-2.63 5.37,-2.82 7.08,-3.00 8.48,-3.04 9.88,-3.08 11.70,-2.68 13.52,-2.28 13.61,-2.22 13.70,-2.16 13.76,-2.07 13.83,-1.99 13.86,-1.89 13.90,-1.79 13.90,-1.68 13.90,-1.58 13.87,-1.48 13.84,-1.38 13.78,-1.29 13.71,-1.20 13.63,-1.14 13.54,-1.08 13.44,-1.05 13.33,-1.02 13.23,-1.03 13.12,-1.03 13.02,-1.07 12.92,-1.11 12.84,-1.18 12.76,-1.24 12.70,-1.33 12.65,-1.42 12.62,-1.53 12.60,-1.63 12.61,-1.74 12.62,-1.84 12.66,-1.94 12.71,-2.04 12.78,-2.11 12.85,-2.19 12.94,-2.24 13.04,-2.29 13.14,-2.31 13.24,-2.33 13.35,-2.32 13.45,-2.30 13.55,-2.25 13.64,-2.20 13.72,-2.13 13.79,-2.05 13.84,-1.96 13.88,-1.86 13.90,-1.75 13.91,-1.65 13.89,-1.54 13.87,-1.44 13.81,-1.35 13.76,-1.26 13.68,-1.19 13.60,-1.12 13.50,-1.08 13.40,-1.04 13.30,-1.03 13.19,-1.02 13.09,-1.05 12.99,-1.08 12.99,-1.08 12.99,-1.08 11.49,-1.26 9.99,-1.43 8.66,-1.30 7.32,-1.16 5.85,-0.92 4.37,-0.69 3.10,-0.22 1.84,0.24 1.10,0.48 0.36,0.72 0.26,0.75 0.17,0.78 0.08,0.79 -0.01,0.80 -0.11,0.79 -0.20,0.77 -0.29,0.74 -0.38,0.70 -0.46,0.65 -0.54,0.59 -0.61,0.51 -0.67,0.44 -0.71,0.35 -0.76,0.27 -0.78,0.17 -0.80,0.08 -0.80,-0.01 -0.79,-0.11 -0.77,-0.20 -0.74,-0.30 -0.70,-0.38 -0.65,-0.47 -0.58,-0.54 -0.52,-0.61 -0.44,-0.66 -0.36,-0.72 -0.36,-0.72 L -0.36,-0.72 Z"/></g><g transform="translate(29.893050069413448 25.54297551213537) rotate(0 5.380260754200691 -2.39122700186698)" stroke="none"><path fill="#1e1e1e" d="M -0.36,-0.72 Q -0.36,-0.72 0.95,-1.52 2.27,-2.32 3.55,-2.93 4.84,-3.54 7.56,-4.29 10.29,-5.03 10.40,-5.04 10.50,-5.05 10.61,-5.02 10.71,-5.00 10.80,-4.94 10.89,-4.88 10.96,-4.80 11.02,-4.72 11.06,-4.62 11.10,-4.52 11.10,-4.41 11.11,-4.31 11.08,-4.21 11.05,-4.11 10.99,-4.02 10.92,-3.93 10.84,-3.87 10.75,-3.81 10.65,-3.77 10.55,-3.74 10.44,-3.74 10.34,-3.75 10.24,-3.78 10.14,-3.82 10.05,-3.88 9.97,-3.95 9.91,-4.04 9.85,-4.13 9.83,-4.23 9.80,-4.33 9.81,-4.44 9.82,-4.54 9.86,-4.64 9.90,-4.74 9.97,-4.82 10.04,-4.90 10.13,-4.95 10.22,-5.01 10.33,-5.03 10.43,-5.05 10.54,-5.03 10.64,-5.02 10.74,-4.97 10.83,-4.93 10.91,-4.85 10.99,-4.78 11.03,-4.68 11.08,-4.59 11.10,-4.48 11.11,-4.38 11.09,-4.27 11.07,-4.17 11.02,-4.08 10.97,-3.98 10.89,-3.91 10.81,-3.84 10.72,-3.80 10.62,-3.76 10.62,-3.76 10.62,-3.76 8.18,-2.75 5.74,-1.74 4.48,-1.08 3.22,-0.42 1.79,0.14 0.36,0.72 0.26,0.75 0.17,0.78 0.08,0.79 -0.01,0.80 -0.11,0.79 -0.20,0.77 -0.29,0.74 -0.38,0.70 -0.46,0.65 -0.54,0.59 -0.61,0.51 -0.67,0.44 -0.71,0.35 -0.76,0.27 -0.78,0.17 -0.80,0.08 -0.80,-0.01 -0.79,-0.11 -0.77,-0.20 -0.74,-0.30 -0.70,-0.38 -0.65,-0.47 -0.58,-0.54 -0.52,-0.61 -0.44,-0.66 -0.36,-0.72 -0.36,-0.72 L -0.36,-0.72 Z"/></g><g transform="translate(53.80532008808325 32.71665651773634) rotate(0 0.597806750466745 7.771487756067685)" stroke="none"><path fill="#1e1e1e" d="M 0.80,0 Q 0.80,0 0.92,1.37 1.04,2.74 1.03,4.36 1.02,5.98 0.96,8.04 0.91,10.10 1.10,12.06 1.29,14.02 1.32,14.12 1.34,14.23 1.33,14.33 1.32,14.44 1.27,14.54 1.23,14.63 1.15,14.71 1.08,14.79 0.99,14.84 0.89,14.89 0.79,14.90 0.68,14.92 0.58,14.90 0.47,14.89 0.38,14.84 0.29,14.79 0.21,14.71 0.14,14.63 0.09,14.54 0.05,14.44 0.04,14.33 0.03,14.23 0.05,14.12 0.07,14.02 0.13,13.93 0.18,13.84 0.26,13.77 0.34,13.70 0.44,13.66 0.54,13.62 0.65,13.62 0.75,13.61 0.86,13.64 0.96,13.67 1.05,13.73 1.13,13.79 1.20,13.87 1.26,13.96 1.30,14.06 1.33,14.16 1.33,14.26 1.33,14.37 1.30,14.47 1.26,14.57 1.20,14.66 1.13,14.74 1.05,14.80 0.96,14.86 0.86,14.89 0.75,14.92 0.65,14.91 0.54,14.90 0.44,14.87 0.34,14.83 0.26,14.76 0.18,14.69 0.13,14.60 0.07,14.51 0.07,14.51 0.07,14.51 -0.41,12.30 -0.91,10.10 -0.96,8.04 -1.02,5.98 -1.03,4.36 -1.04,2.74 -0.92,1.37 -0.80,0 -0.79,-0.09 -0.78,-0.19 -0.74,-0.28 -0.71,-0.37 -0.65,-0.45 -0.60,-0.53 -0.53,-0.59 -0.45,-0.66 -0.37,-0.70 -0.28,-0.75 -0.19,-0.77 -0.09,-0.80 0.00,-0.80 0.09,-0.80 0.19,-0.77 0.28,-0.75 0.37,-0.70 0.45,-0.66 0.53,-0.59 0.60,-0.53 0.65,-0.45 0.71,-0.37 0.74,-0.28 0.78,-0.19 0.79,-0.09 0.80,0.00 0.80,0.00 L 0.80,0 Z"/></g><g transform="translate(99.32553375115833 133.85601561580717) rotate(0 6.8035510783278 -8.004177739209197)" stroke="none"><path fill="#1e1e1e" d="M 0.80,0 Q 0.80,0 0.83,0.67 0.85,1.35 2.23,-0.98 3.61,-3.33 5.02,-5.97 6.42,-8.62 7.71,-11.34 9.00,-14.05 9.79,-15.88 10.58,-17.71 10.90,-18.69 11.23,-19.66 11.37,-19.86 11.51,-20.06 11.57,-20.18 11.63,-20.30 11.71,-20.41 11.80,-20.52 11.91,-20.60 12.02,-20.68 12.14,-20.74 12.27,-20.79 12.40,-20.82 12.54,-20.84 12.68,-20.83 12.81,-20.82 12.94,-20.78 13.07,-20.74 13.19,-20.66 13.31,-20.59 13.40,-20.49 13.50,-20.39 13.57,-20.28 13.64,-20.16 13.67,-20.03 13.71,-19.90 13.72,-19.76 13.73,-19.62 13.70,-19.49 13.67,-19.35 14.13,-17.81 14.58,-16.26 14.64,-14.34 14.69,-12.41 14.49,-10.16 14.28,-7.91 14.17,-5.64 14.07,-3.36 14.00,-1.47 13.92,0.40 14.08,0.95 14.23,1.50 14.22,1.58 14.21,1.66 14.18,1.73 14.15,1.80 14.11,1.87 14.06,1.93 14.00,1.98 13.94,2.03 13.87,2.07 13.80,2.11 13.72,2.12 13.64,2.14 13.56,2.14 13.49,2.14 13.41,2.12 13.33,2.10 13.26,2.06 13.19,2.02 13.14,1.97 13.08,1.91 13.03,1.85 12.99,1.78 12.96,1.71 12.94,1.63 12.93,1.55 12.92,1.47 12.94,1.36 12.96,1.26 13.02,1.16 13.07,1.07 13.15,1.00 13.23,0.93 13.33,0.89 13.42,0.85 13.53,0.84 13.64,0.83 13.74,0.86 13.84,0.89 13.93,0.94 14.02,1.00 14.09,1.08 14.15,1.17 14.19,1.27 14.22,1.37 14.23,1.47 14.23,1.58 14.20,1.68 14.16,1.78 14.10,1.87 14.04,1.95 13.95,2.02 13.86,2.08 13.76,2.11 13.66,2.14 13.55,2.13 13.45,2.13 13.35,2.09 13.25,2.06 13.17,1.99 13.09,1.92 13.03,1.83 12.97,1.74 12.95,1.64 12.92,1.53 12.93,1.43 12.94,1.32 12.98,1.23 13.03,1.13 13.10,1.05 13.17,0.97 13.26,0.92 13.36,0.87 13.46,0.85 13.57,0.83 13.67,0.85 13.78,0.86 13.87,0.91 13.97,0.96 14.04,1.03 14.11,1.11 14.16,1.20 14.21,1.30 14.22,1.40 14.23,1.51 14.23,1.50 14.23,1.50 14.22,1.58 14.21,1.66 14.18,1.73 14.15,1.80 14.11,1.87 14.06,1.93 14.00,1.98 13.94,2.03 13.87,2.07 13.80,2.11 13.72,2.12 13.64,2.14 13.56,2.14 13.49,2.14 13.41,2.12 13.33,2.10 13.26,2.06 13.19,2.02 13.14,1.97 13.08,1.91 13.03,1.85 12.99,1.78 12.96,1.71 12.94,1.63 12.93,1.55 12.92,1.47 12.36,0.92 11.79,0.37 11.79,-1.54 11.79,-3.45 11.87,-5.79 11.94,-8.13 12.15,-10.24 12.35,-12.35 12.31,-14.19 12.26,-16.02 12.20,-17.02 12.14,-18.03 11.83,-19.04 11.51,-20.06 11.57,-20.18 11.63,-20.30 11.71,-20.41 11.80,-20.52 11.91,-20.60 12.02,-20.68 12.14,-20.74 12.27,-20.79 12.40,-20.82 12.54,-20.84 12.68,-20.83 12.81,-20.82 12.94,-20.78 13.07,-20.74 13.19,-20.66 13.31,-20.59 13.40,-20.49 13.50,-20.39 13.57,-20.28 13.64,-20.16 13.67,-20.03 13.71,-19.90 13.72,-19.76 13.73,-19.62 13.70,-19.49 13.67,-19.35 13.53,-19.14 13.39,-18.93 13.06,-17.87 12.72,-16.81 11.95,-14.92 11.17,-13.03 9.88,-10.25 8.58,-7.47 7.15,-4.77 5.71,-2.07 4.49,-0.07 3.27,1.92 2.63,2.73 1.99,3.55 0.76,3.24 -0.47,2.93 -0.66,2.17 -0.85,1.41 -0.83,0.70 -0.80,0 -0.79,-0.09 -0.78,-0.19 -0.74,-0.28 -0.71,-0.37 -0.65,-0.45 -0.60,-0.53 -0.53,-0.59 -0.45,-0.66 -0.37,-0.70 -0.28,-0.75 -0.19,-0.77 -0.09,-0.80 0.00,-0.80 0.09,-0.80 0.19,-0.77 0.28,-0.75 0.37,-0.70 0.45,-0.66 0.53,-0.59 0.60,-0.53 0.65,-0.45 0.71,-0.37 0.74,-0.28 0.78,-0.19 0.79,-0.09 0.80,0.00 0.80,0.00 L 0.80,0 Z"/></g><g transform="translate(103.32762262076292 128.25309119836072) rotate(0 5.602924417446417 -1.200626660881369)" stroke="none"><path fill="#1e1e1e" d="M -0.36,-0.72 Q -0.36,-0.72 0.03,-1.09 0.42,-1.46 1.87,-1.88 3.32,-2.29 4.81,-2.68 6.29,-3.06 9.21,-3.03 12.12,-3.01 12.22,-3.00 12.33,-2.99 12.42,-2.95 12.52,-2.90 12.60,-2.83 12.68,-2.76 12.73,-2.66 12.78,-2.57 12.80,-2.47 12.82,-2.36 12.80,-2.26 12.78,-2.15 12.73,-2.06 12.69,-1.96 12.61,-1.89 12.53,-1.81 12.44,-1.77 12.34,-1.72 12.24,-1.71 12.13,-1.70 12.03,-1.72 11.92,-1.74 11.83,-1.80 11.74,-1.85 11.67,-1.93 11.60,-2.01 11.56,-2.11 11.52,-2.21 11.51,-2.31 11.51,-2.42 11.53,-2.52 11.56,-2.62 11.62,-2.71 11.68,-2.80 11.76,-2.87 11.84,-2.93 11.95,-2.97 12.05,-3.00 12.15,-3.00 12.26,-3.00 12.36,-2.97 12.46,-2.94 12.55,-2.87 12.63,-2.81 12.69,-2.72 12.75,-2.64 12.78,-2.53 12.81,-2.43 12.81,-2.33 12.80,-2.22 12.76,-2.12 12.73,-2.02 12.66,-1.94 12.59,-1.86 12.50,-1.80 12.41,-1.75 12.30,-1.72 12.20,-1.70 12.20,-1.70 12.20,-1.70 9.55,-1.17 6.89,-0.64 5.39,-0.28 3.90,0.06 2.65,0.30 1.41,0.54 0.88,0.63 0.36,0.72 0.26,0.75 0.17,0.78 0.08,0.79 -0.01,0.80 -0.11,0.79 -0.20,0.77 -0.29,0.74 -0.38,0.70 -0.46,0.65 -0.54,0.59 -0.61,0.51 -0.67,0.44 -0.71,0.35 -0.76,0.27 -0.78,0.17 -0.80,0.08 -0.80,-0.01 -0.79,-0.11 -0.77,-0.20 -0.74,-0.30 -0.70,-0.38 -0.65,-0.47 -0.58,-0.54 -0.52,-0.61 -0.44,-0.66 -0.36,-0.72 -0.36,-0.72 L -0.36,-0.72 Z"/></g><g transform="translate(122.53764919486497 133.05559784188623) rotate(0 -1.4210854715202004e-14 6.403342191367358)" stroke="none"><path fill="#1e1e1e" d="M 0.80,0 Q 0.80,0 0.99,0.92 1.18,1.84 1.19,3.15 1.19,4.46 1.16,6.17 1.13,7.88 1.15,10.04 1.17,12.21 1.22,12.30 1.27,12.40 1.29,12.50 1.31,12.61 1.29,12.71 1.28,12.82 1.23,12.91 1.18,13.01 1.11,13.08 1.03,13.16 0.93,13.20 0.84,13.25 0.73,13.26 0.63,13.28 0.52,13.25 0.42,13.23 0.33,13.18 0.24,13.13 0.17,13.05 0.09,12.97 0.05,12.87 0.01,12.77 0.00,12.67 0.00,12.56 0.02,12.46 0.05,12.36 0.11,12.27 0.17,12.18 0.25,12.11 0.33,12.05 0.43,12.01 0.53,11.97 0.64,11.97 0.74,11.97 0.85,12.00 0.95,12.03 1.03,12.10 1.12,12.16 1.18,12.25 1.24,12.33 1.27,12.43 1.30,12.54 1.30,12.64 1.29,12.75 1.26,12.85 1.22,12.95 1.15,13.03 1.09,13.11 1.00,13.17 0.91,13.22 0.80,13.25 0.70,13.27 0.59,13.26 0.49,13.26 0.39,13.21 0.29,13.17 0.21,13.10 0.14,13.03 0.14,13.03 0.14,13.03 -0.49,10.45 -1.13,7.88 -1.16,6.17 -1.19,4.46 -1.19,3.15 -1.18,1.84 -0.99,0.92 -0.80,0 -0.79,-0.09 -0.78,-0.19 -0.74,-0.28 -0.71,-0.37 -0.65,-0.45 -0.60,-0.53 -0.53,-0.59 -0.45,-0.66 -0.37,-0.70 -0.28,-0.75 -0.19,-0.77 -0.09,-0.80 0.00,-0.80 0.09,-0.80 0.19,-0.77 0.28,-0.75 0.37,-0.70 0.45,-0.66 0.53,-0.59 0.60,-0.53 0.65,-0.45 0.71,-0.37 0.74,-0.28 0.78,-0.19 0.79,-0.09 0.80,0.00 0.80,0.00 L 0.80,0 Z"/></g><g transform="translate(302.63164832707156 127.45267342443981) rotate(0 6.803551078327814 -11.205848834892862)" stroke="none"><path fill="#1e1e1e" d="M -0.79,-0.15 Q -0.79,-0.15 -0.70,-1.33 -0.60,-2.51 0.20,-4.49 1.00,-6.47 2.28,-9.12 3.56,-11.77 5.30,-14.34 7.03,-16.90 8.48,-18.68 9.93,-20.45 11.02,-21.29 12.11,-22.13 13.11,-21.90 14.10,-21.67 14.57,-20.74 15.04,-19.81 14.98,-18.14 14.91,-16.48 14.64,-14.66 14.36,-12.84 14.01,-10.92 13.66,-9.00 13.51,-7.33 13.35,-5.66 13.01,-3.61 12.66,-1.56 12.63,-1.46 12.60,-1.36 12.53,-1.27 12.47,-1.18 12.39,-1.12 12.30,-1.06 12.20,-1.03 12.10,-1.00 11.99,-1.00 11.88,-1.00 11.78,-1.04 11.68,-1.08 11.60,-1.14 11.52,-1.21 11.46,-1.30 11.41,-1.39 11.38,-1.49 11.35,-1.60 11.36,-1.70 11.37,-1.81 11.41,-1.90 11.46,-2.00 11.53,-2.08 11.60,-2.16 11.69,-2.21 11.78,-2.26 11.89,-2.28 11.99,-2.30 12.10,-2.29 12.20,-2.28 12.30,-2.23 12.39,-2.18 12.47,-2.11 12.54,-2.03 12.59,-1.94 12.64,-1.84 12.65,-1.74 12.66,-1.63 12.64,-1.53 12.62,-1.42 12.57,-1.33 12.52,-1.24 12.44,-1.17 12.36,-1.09 12.26,-1.05 12.17,-1.01 12.06,-1.00 11.95,-0.99 11.85,-1.02 11.75,-1.05 11.66,-1.10 11.57,-1.16 11.50,-1.24 11.44,-1.33 11.40,-1.43 11.36,-1.53 11.36,-1.63 11.36,-1.74 11.36,-1.74 11.36,-1.74 11.22,-3.79 11.09,-5.85 11.23,-7.64 11.38,-9.42 11.73,-11.32 12.08,-13.21 12.37,-14.94 12.66,-16.67 12.85,-17.95 13.04,-19.22 12.84,-19.85 12.64,-20.48 12.08,-19.83 11.51,-19.18 10.15,-17.45 8.79,-15.72 7.15,-13.28 5.52,-10.84 4.29,-8.22 3.06,-5.60 2.29,-3.84 1.52,-2.08 1.16,-0.96 0.79,0.15 0.76,0.25 0.73,0.34 0.67,0.42 0.62,0.50 0.55,0.57 0.48,0.64 0.40,0.69 0.31,0.74 0.22,0.76 0.13,0.79 0.03,0.80 -0.06,0.80 -0.15,0.78 -0.25,0.76 -0.34,0.72 -0.42,0.68 -0.50,0.62 -0.57,0.56 -0.63,0.48 -0.69,0.40 -0.73,0.31 -0.77,0.22 -0.79,0.13 -0.80,0.03 -0.79,-0.06 -0.79,-0.15 -0.79,-0.15 L -0.79,-0.15 Z"/></g><g transform="translate(304.23248387491344 119.44849568523063) rotate(0 6.403342191367329 -0.8004177739209268)" stroke="none"><path fill="#1e1e1e" d="M -0.36,-0.72 Q -0.36,-0.72 0.04,-1.05 0.45,-1.38 1.38,-1.78 2.31,-2.17 3.98,-2.33 5.64,-2.49 8.51,-2.03 11.38,-1.56 11.48,-1.53 11.59,-1.51 11.68,-1.45 11.77,-1.40 11.83,-1.31 11.90,-1.23 11.94,-1.13 11.97,-1.03 11.98,-0.93 11.98,-0.82 11.95,-0.72 11.92,-0.62 11.86,-0.53 11.80,-0.44 11.71,-0.38 11.63,-0.32 11.53,-0.28 11.42,-0.25 11.32,-0.25 11.21,-0.26 11.11,-0.29 11.01,-0.33 10.93,-0.39 10.85,-0.46 10.79,-0.55 10.73,-0.64 10.70,-0.74 10.68,-0.84 10.68,-0.95 10.69,-1.06 10.73,-1.15 10.77,-1.25 10.84,-1.33 10.92,-1.41 11.01,-1.46 11.10,-1.52 11.20,-1.54 11.31,-1.56 11.41,-1.55 11.52,-1.53 11.61,-1.49 11.71,-1.44 11.79,-1.36 11.86,-1.29 11.91,-1.20 11.96,-1.10 11.97,-1.00 11.99,-0.89 11.97,-0.79 11.95,-0.68 11.90,-0.59 11.85,-0.50 11.77,-0.42 11.69,-0.35 11.59,-0.31 11.49,-0.27 11.39,-0.26 11.28,-0.25 11.28,-0.25 11.28,-0.25 8.56,-0.27 5.84,-0.29 4.45,-0.17 3.07,-0.05 2.22,0.20 1.38,0.46 0.87,0.59 0.36,0.72 0.26,0.75 0.17,0.78 0.08,0.79 -0.01,0.80 -0.11,0.79 -0.20,0.77 -0.29,0.74 -0.38,0.70 -0.46,0.65 -0.54,0.59 -0.61,0.51 -0.67,0.44 -0.71,0.35 -0.76,0.27 -0.78,0.17 -0.80,0.08 -0.80,-0.01 -0.79,-0.11 -0.77,-0.20 -0.74,-0.30 -0.70,-0.38 -0.65,-0.47 -0.58,-0.54 -0.52,-0.61 -0.44,-0.66 -0.36,-0.72 -0.36,-0.72 L -0.36,-0.72 Z"/></g><g transform="translate(317.839586031569 126.6522556505189) rotate(0 4.802506643525533 6.003133304406887)" stroke="none"><path fill="#1e1e1e" d="M -0.19,-0.78 Q -0.19,-0.78 0.80,-1.12 1.80,-1.45 2.71,-1.05 3.62,-0.65 4.43,0.06 5.24,0.78 5.63,1.99 6.03,3.20 5.66,4.51 5.28,5.82 4.62,7.04 3.96,8.25 2.97,9.49 1.98,10.73 1.34,11.48 0.71,12.23 -0.03,12.66 -0.77,13.09 -0.78,13.02 -0.78,12.95 -0.89,13.00 -0.99,13.04 -1.10,13.07 -1.21,13.09 -1.33,13.08 -1.44,13.08 -1.55,13.05 -1.66,13.01 -1.76,12.96 -1.86,12.90 -1.94,12.82 -2.02,12.74 -2.08,12.64 -2.14,12.55 -2.17,12.44 -2.21,12.33 -2.22,12.22 -2.23,12.10 -2.21,11.99 -2.19,11.88 -2.14,11.77 -2.10,11.67 -2.03,11.58 -1.96,11.49 -1.87,11.42 -1.78,11.34 -1.19,10.62 -0.60,9.90 0.26,9.65 1.13,9.39 2.20,9.30 3.27,9.20 4.40,9.18 5.54,9.15 6.83,9.40 8.12,9.66 9.75,10.87 11.39,12.08 11.45,12.17 11.52,12.25 11.56,12.35 11.59,12.45 11.59,12.56 11.60,12.66 11.56,12.76 11.53,12.87 11.47,12.95 11.41,13.04 11.32,13.10 11.23,13.16 11.13,13.19 11.03,13.22 10.93,13.22 10.82,13.22 10.72,13.18 10.62,13.14 10.54,13.07 10.46,13.01 10.40,12.92 10.34,12.83 10.32,12.72 10.29,12.62 10.30,12.51 10.31,12.41 10.35,12.31 10.39,12.21 10.47,12.14 10.54,12.06 10.63,12.01 10.72,11.95 10.83,11.93 10.93,11.91 11.04,11.93 11.14,11.94 11.24,11.99 11.33,12.04 11.41,12.12 11.48,12.19 11.53,12.29 11.58,12.38 11.59,12.49 11.60,12.59 11.58,12.70 11.56,12.80 11.51,12.89 11.46,12.99 11.38,13.06 11.30,13.13 11.20,13.17 11.10,13.21 11.00,13.22 10.89,13.23 10.79,13.20 10.68,13.17 10.59,13.11 10.51,13.06 10.51,13.06 10.51,13.06 9.08,12.58 7.65,12.10 6.62,11.91 5.59,11.73 4.51,11.75 3.43,11.78 2.54,11.81 1.65,11.85 0.79,12.01 -0.06,12.17 -0.42,12.56 -0.78,12.95 -0.89,13.00 -0.99,13.04 -1.10,13.07 -1.21,13.09 -1.33,13.08 -1.44,13.08 -1.55,13.05 -1.66,13.01 -1.76,12.96 -1.86,12.90 -1.94,12.82 -2.02,12.74 -2.08,12.64 -2.14,12.55 -2.17,12.44 -2.21,12.33 -2.22,12.22 -2.23,12.10 -2.21,11.99 -2.19,11.88 -2.14,11.77 -2.10,11.67 -2.03,11.58 -1.96,11.49 -1.87,11.42 -1.78,11.34 -1.11,11.27 -0.44,11.21 0.18,10.49 0.80,9.78 1.70,8.66 2.60,7.54 3.14,6.44 3.68,5.34 3.97,4.46 4.25,3.58 4.04,2.89 3.82,2.20 2.84,1.37 1.87,0.53 1.03,0.66 0.19,0.78 0.09,0.79 0.00,0.80 -0.09,0.79 -0.19,0.78 -0.28,0.75 -0.37,0.71 -0.45,0.66 -0.53,0.60 -0.59,0.53 -0.66,0.46 -0.70,0.37 -0.75,0.28 -0.77,0.19 -0.80,0.09 -0.80,0.00 -0.80,-0.09 -0.77,-0.18 -0.75,-0.28 -0.71,-0.37 -0.66,-0.45 -0.60,-0.52 -0.53,-0.60 -0.45,-0.65 -0.37,-0.71 -0.28,-0.74 -0.19,-0.78 -0.19,-0.78 L -0.19,-0.78 Z"/></g><g transform="translate(36.09252961140578 208.29486859045255) rotate(0 1.6008355478418252 17.208982139299735)" stroke="none"><path fill="#1e1e1e" d="M 0.79,-0.13 Q 0.79,-0.13 1.18,1.22 1.57,2.57 2.15,5.44 2.73,8.31 3.20,12.57 3.67,16.84 3.84,20.74 4.00,24.64 4.01,28.33 4.02,32.02 4.09,32.09 4.17,32.17 4.22,32.26 4.26,32.36 4.28,32.46 4.29,32.57 4.27,32.67 4.25,32.78 4.20,32.87 4.15,32.96 4.07,33.03 3.99,33.10 3.89,33.15 3.79,33.19 3.69,33.20 3.58,33.21 3.48,33.18 3.37,33.15 3.28,33.10 3.20,33.04 3.13,32.96 3.06,32.87 3.03,32.77 2.99,32.67 2.99,32.57 2.98,32.46 3.02,32.36 3.05,32.26 3.11,32.17 3.17,32.09 3.26,32.02 3.34,31.96 3.44,31.93 3.55,31.90 3.65,31.90 3.76,31.91 3.86,31.94 3.96,31.98 4.04,32.05 4.12,32.11 4.18,32.20 4.24,32.29 4.26,32.40 4.29,32.50 4.28,32.60 4.27,32.71 4.23,32.81 4.19,32.91 4.12,32.98 4.05,33.06 3.95,33.12 3.86,33.17 3.76,33.19 3.65,33.21 3.55,33.19 3.44,33.18 3.35,33.13 3.25,33.08 3.25,33.08 3.25,33.08 2.53,28.92 1.81,24.75 1.57,20.93 1.34,17.10 0.87,12.93 0.41,8.76 -0.12,5.85 -0.65,2.94 -0.72,1.54 -0.79,0.13 -0.80,0.03 -0.80,-0.06 -0.78,-0.15 -0.76,-0.25 -0.72,-0.34 -0.68,-0.42 -0.62,-0.50 -0.56,-0.57 -0.48,-0.63 -0.40,-0.69 -0.31,-0.73 -0.22,-0.77 -0.13,-0.79 -0.03,-0.80 0.06,-0.79 0.15,-0.79 0.25,-0.76 0.34,-0.73 0.42,-0.67 0.50,-0.62 0.57,-0.55 0.64,-0.48 0.69,-0.40 0.74,-0.31 0.76,-0.22 0.79,-0.13 0.79,-0.13 L 0.79,-0.13 Z"/></g><g transform="translate(39.29420070708943 209.09528636437346) rotate(0 7.603968852248727 6.403342191367358)" stroke="none"><path fill="#1e1e1e" d="M -0.79,-0.15 Q -0.79,-0.15 -0.59,-1.31 -0.39,-2.47 -0.05,-3.29 0.28,-4.11 0.66,-4.95 1.04,-5.79 1.83,-6.32 2.62,-6.85 3.78,-7.05 4.93,-7.25 6.06,-6.83 7.19,-6.40 8.30,-5.75 9.42,-5.10 10.63,-4.09 11.85,-3.08 12.85,-1.91 13.86,-0.73 14.55,0.78 15.25,2.31 15.55,4.20 15.85,6.10 15.49,7.73 15.13,9.36 14.00,11.07 12.87,12.77 11.45,14.21 10.03,15.64 8.45,16.74 6.87,17.83 5.05,17.83 3.23,17.82 3.16,17.85 3.09,17.89 3.02,17.91 2.94,17.93 2.86,17.93 2.78,17.93 2.70,17.91 2.63,17.89 2.56,17.85 2.49,17.81 2.43,17.76 2.37,17.71 2.32,17.64 2.28,17.58 2.25,17.50 2.22,17.43 2.22,17.35 2.21,17.27 2.22,17.19 2.23,17.11 2.25,17.04 2.28,16.97 2.33,16.90 2.37,16.84 2.43,16.78 2.49,16.73 2.48,16.74 2.48,16.74 2.57,16.70 2.67,16.65 2.77,16.63 2.88,16.62 2.98,16.64 3.09,16.66 3.18,16.71 3.27,16.76 3.34,16.84 3.41,16.92 3.46,17.01 3.50,17.11 3.51,17.22 3.52,17.32 3.49,17.43 3.47,17.53 3.41,17.62 3.35,17.71 3.27,17.78 3.19,17.84 3.09,17.88 2.99,17.92 2.88,17.92 2.78,17.93 2.68,17.89 2.57,17.86 2.49,17.80 2.40,17.74 2.34,17.66 2.28,17.57 2.24,17.47 2.21,17.37 2.21,17.26 2.22,17.15 2.25,17.05 2.29,16.95 2.36,16.87 2.42,16.79 2.51,16.73 2.60,16.67 2.70,16.65 2.81,16.62 2.91,16.63 3.02,16.64 3.12,16.68 3.21,16.72 3.29,16.79 3.37,16.86 3.43,16.95 3.48,17.04 3.50,17.15 3.52,17.25 3.51,17.36 3.49,17.46 3.44,17.56 3.40,17.65 3.32,17.74 3.23,17.82 3.16,17.85 3.09,17.89 3.02,17.91 2.94,17.93 2.86,17.93 2.78,17.93 2.70,17.91 2.63,17.89 2.56,17.85 2.49,17.81 2.43,17.76 2.37,17.71 2.32,17.64 2.28,17.58 2.25,17.50 2.22,17.43 2.22,17.35 2.21,17.27 2.22,17.19 2.23,17.11 2.25,17.04 2.28,16.97 2.33,16.90 2.37,16.84 2.43,16.78 2.49,16.73 4.03,16.33 5.57,15.93 7.00,14.97 8.43,14.00 9.76,12.76 11.09,11.51 12.09,10.16 13.10,8.81 13.43,7.59 13.76,6.36 13.52,4.77 13.29,3.18 12.72,1.94 12.16,0.69 11.27,-0.32 10.38,-1.34 9.32,-2.25 8.25,-3.16 7.25,-3.77 6.25,-4.38 5.65,-4.76 5.05,-5.14 3.86,-4.94 2.66,-4.74 2.30,-4.05 1.94,-3.36 1.63,-2.74 1.31,-2.12 1.05,-0.98 0.79,0.15 0.76,0.25 0.73,0.34 0.67,0.42 0.62,0.50 0.55,0.57 0.48,0.64 0.40,0.69 0.31,0.74 0.22,0.76 0.13,0.79 0.03,0.80 -0.06,0.80 -0.15,0.78 -0.25,0.76 -0.34,0.72 -0.42,0.68 -0.50,0.62 -0.57,0.56 -0.63,0.48 -0.69,0.40 -0.73,0.31 -0.77,0.22 -0.79,0.13 -0.80,0.03 -0.79,-0.06 -0.79,-0.15 -0.79,-0.15 L -0.79,-0.15 Z"/></g><g stroke-linecap="round"><g transform="translate(10.606060606060737 142.4340819318634) rotate(0 37.575757575757564 0)"><path d="M0 0 C28.38 0, 56.76 0, 75.15 0 M0 0 C18.36 0, 36.73 0, 75.15 0" stroke="#1e1e1e" stroke-width="4" fill="none"/></g></g><mask/><g stroke-linecap="round"><g transform="translate(335.45454545454555 127.88862738640884) rotate(0 100.30303030303028 0)"><path d="M0 0 C69.42 0, 138.85 0, 200.61 0 M0 0 C62.07 0, 124.15 0, 200.61 0" stroke="#1e1e1e" stroke-width="4" fill="none"/></g></g><mask/><g stroke-linecap="round"><g transform="translate(10 118.19165768943915) rotate(0 0 -28.484848484848484)"><path d="M0 0 C0 -16.36, 0 -32.71, 0 -56.97 M0 0 C0 -20.62, 0 -41.25, 0 -56.97" stroke="#1e1e1e" stroke-width="4" fill="none"/></g></g><mask/><g stroke-linecap="round"><g transform="translate(86.36363636363637 117.58559708337847) rotate(0 0 -28.484848484848484)"><path d="M0 0 C0 -11.7, 0 -23.4, 0 -56.97 M0 0 C0 -17.64, 0 -35.28, 0 -56.97" stroke="#1e1e1e" stroke-width="4" fill="none"/></g></g><mask/><g stroke-linecap="round"><g transform="translate(334.2424242424243 109.10074859853) rotate(0 0 -28.484848484848484)"><path d="M0 0 C0 -22.31, 0 -44.62, 0 -56.97 M0 0 C0 -19.65, 0 -39.3, 0 -56.97" stroke="#1e1e1e" stroke-width="4" fill="none"/></g></g><mask/><g stroke-linecap="round"><g transform="translate(534.8484848484849 108.49468799246944) rotate(0 0 -28.484848484848484)"><path d="M0 0 C0 -11.73, 0 -23.45, 0 -56.97 M0 0 C0 -12.81, 0 -25.63, 0 -56.97" stroke="#1e1e1e" stroke-width="4" fill="none"/></g></g><mask/></svg>